<?xml version="1.0" encoding="utf-8"?>
<!-- Generator: Adobe Illustrator 21.0.0, SVG Export Plug-In . SVG Version: 6.00 Build 0)  -->
<svg version="1.1" id="Layer_1" xmlns="http://www.w3.org/2000/svg" xmlns:xlink="http://www.w3.org/1999/xlink" x="0px" y="0px"
	 viewBox="0 0 787.1 312" style="enable-background:new 0 0 787.1 312;" xml:space="preserve">
<style type="text/css">
	.st0{fill:none;stroke:#383938;stroke-width:2;stroke-linecap:round;stroke-linejoin:round;stroke-miterlimit:10;}
	.st1{fill:none;stroke:#D1D2D2;stroke-width:2;stroke-linecap:round;stroke-linejoin:round;stroke-miterlimit:10;}
	.st2{fill:none;stroke:#8EBDDE;stroke-width:2;stroke-linecap:round;stroke-linejoin:round;stroke-miterlimit:10;}
	
		.st3{fill:none;stroke:#8EBDDE;stroke-width:2;stroke-linecap:round;stroke-linejoin:round;stroke-miterlimit:10;stroke-dasharray:1,6;}
	.st4{fill:none;stroke:#4E84A1;stroke-linecap:round;stroke-linejoin:round;stroke-miterlimit:10;}
	.st5{enable-background:new    ;}
	.st6{fill:#24BDC3;}
	.st7{fill:#0E1022;}
</style>
<path class="st0" d="M520.7,60.6c-14.6,21.8-29.6,63.6-29.6,63.6l-226.4-4.7c0,0,23.5-21.4,41.5-35.2s36-24,36-24H520"/>
<path class="st1" d="M533.8,47.9c-3.7,0.9-8,5.2-12.3,11.4"/>
<path class="st1" d="M405.9,45.8c0,0-52.6,2.9-78.1,19.8s-69.4,52.6-69.4,52.6s-63.2,15.4-75.2,20.6c-12,5.2-17.7,8.3-17.7,8.3
	s-21.4,8.3-27.1,11.5c-5.7,3.1-8.9,13.5-8.9,13.5l10.4,13l3.1-4.2l132.8,4.2l6.3,5.2l53.8-6.8c0,0,20.7-18.8,54.1-26
	c33.3-7.3,92.2-19.8,92.2-19.8"/>
<path class="st1" d="M514.8,117l7.3-3.3c0,0,0.5-4.9,3.6-8.5c3.1-3.5,25.5-5.6,35.9-4s14.6,7.3,14.6,11.5s0.8,10.7-12.2,12.5
	s-33.6,0-33.6,0l-3.3,4"/>
<path class="st1" d="M137.1,181.6l-16.6,20.6c0,0-3.8-9.4,0-17.7c3.8-8.3,9-12.3,9-12.3"/>
<path class="st1" d="M298.4,188.3l17,25.3c0,0,65.6-5.9,82.3-12.7c16.7-6.8,22.9-13.7,23.6-16.5s0-12.3,0-12.3L336,183.6"/>
<path class="st1" d="M575.5,119l13.4-3l-19.3-57.1c0,0-23.3-5-36.5,15.8S509.5,133,509.5,133"/>
<line class="st1" x1="509.5" y1="133.8" x2="544.2" y2="126"/>
<path class="st1" d="M118.8,192.9l-10.1,15.7v42.7l5.1,5.2v25c0,0,18.4,22.9,163.2,21.9s144.6-7.8,144.6-7.8s2.3-57.3,26.3-85.4
	c24-28.1,45.3-25,59.7-1.6"/>
<path class="st1" d="M144.6,187.2l-11.5,14l8.3,31.4c0,0,110.3,8.9,110.6,7.3s37.9-29.2,37.9-29.2l-14.6-20.3L144.6,187.2z"/>
<polygon class="st1" points="158.7,243 213.9,246.7 213.9,277.9 158.7,273.2 "/>
<polyline class="st1" points="158.7,260.6 122.2,257.6 118.8,276.3 149.3,285.2 153,289.3 238.4,295.1 241,292.5 308.1,295.1 
	281.1,270.6 213.4,265 "/>
<path class="st2" d="M505.9,34.1c0,0-57.6-3.6-95.6-3.6s-79.7,3.6-79.7,3.6c-0.3,0-0.6,0.1-0.9,0.3c0,0-12.1,5.6-34,22.9
	s-42.9,33.9-42.9,33.9c-1.3,0.9-0.6,2.9,0.9,2.9l224.8,2.5c0.7,0,1.2-0.4,1.5-1l27.4-59.3C507.8,35.2,507,34.1,505.9,34.1z"/>
<line class="st3" x1="329.7" y1="34.4" x2="342.2" y2="60.4"/>
<line class="st3" x1="252.1" y1="93.2" x2="264.6" y2="119.5"/>
<line class="st3" x1="478.5" y1="96.6" x2="491" y2="124.2"/>
<polyline class="st4" points="326.6,52.1 242.3,60.2 102.1,60.2 "/>
<polyline class="st4" points="326.6,52.1 245.6,146.4 85.5,146.4 "/>
<polyline class="st4" points="440.5,65.3 502.8,190 659.1,190 "/>
<line class="st3" x1="507.5" y1="34.4" x2="520" y2="61.4"/>
<g class="st5">
	<path class="st6" d="M9.1,1.6c2.1,0,3.7,0.5,5,1.5s1.8,2.3,1.8,4c0,1.1-0.3,2.2-1,3.1c-0.7,0.9-1.8,1.8-3.3,2.5
		c1.9,0.9,3.2,1.8,4,2.8c0.8,1,1.2,2.1,1.2,3.4c0,1.9-0.7,3.4-2,4.5s-3.1,1.7-5.4,1.7c-2.4,0-4.3-0.5-5.6-1.6c-1.3-1.1-2-2.6-2-4.5
		c0-2.6,1.6-4.7,4.8-6.1c-1.4-0.8-2.5-1.7-3.1-2.6c-0.6-0.9-0.9-2-0.9-3.2c0-1.7,0.6-3,1.8-4C5.4,2.1,7.1,1.6,9.1,1.6z M4.2,19
		c0,1.2,0.4,2.2,1.3,2.9c0.9,0.7,2.1,1,3.7,1s2.8-0.4,3.6-1.1c0.9-0.7,1.3-1.7,1.3-3c0-1-0.4-1.9-1.2-2.7c-0.8-0.8-2.2-1.5-4.2-2.3
		C7.1,14.5,6,15.2,5.3,16C4.5,16.9,4.2,17.9,4.2,19z M9.1,3.7C7.8,3.7,6.8,4,6,4.6C5.3,5.2,4.9,6.1,4.9,7.1s0.3,1.8,0.9,2.5
		s1.8,1.4,3.4,2.1c1.5-0.6,2.5-1.3,3.2-2C13,9,13.3,8.1,13.3,7.2c0-1.1-0.4-1.9-1.1-2.5C11.5,4.1,10.4,3.7,9.1,3.7z"/>
	<path class="st6" d="M27.4,1.6c2.1,0,3.7,0.5,5,1.5s1.8,2.3,1.8,4c0,1.1-0.3,2.2-1,3.1c-0.7,0.9-1.8,1.8-3.3,2.5
		c1.9,0.9,3.2,1.8,4,2.8c0.8,1,1.2,2.1,1.2,3.4c0,1.9-0.7,3.4-2,4.5s-3.1,1.7-5.4,1.7c-2.4,0-4.3-0.5-5.6-1.6c-1.3-1.1-2-2.6-2-4.5
		c0-2.6,1.6-4.7,4.8-6.1c-1.4-0.8-2.5-1.7-3.1-2.6c-0.6-0.9-0.9-2-0.9-3.2c0-1.7,0.6-3,1.8-4C23.7,2.1,25.4,1.6,27.4,1.6z M22.5,19
		c0,1.2,0.4,2.2,1.3,2.9c0.9,0.7,2.1,1,3.7,1s2.8-0.4,3.6-1.1c0.9-0.7,1.3-1.7,1.3-3c0-1-0.4-1.9-1.2-2.7c-0.8-0.8-2.2-1.5-4.2-2.3
		c-1.6,0.7-2.7,1.4-3.4,2.2C22.8,16.9,22.5,17.9,22.5,19z M27.4,3.7c-1.3,0-2.3,0.3-3.1,0.9c-0.7,0.6-1.1,1.5-1.1,2.5
		s0.3,1.8,0.9,2.5s1.8,1.4,3.4,2.1c1.5-0.6,2.5-1.3,3.2-2c0.6-0.7,0.9-1.6,0.9-2.5c0-1.1-0.4-1.9-1.1-2.5
		C29.8,4.1,28.7,3.7,27.4,3.7z"/>
</g>
<g class="st5">
	<path class="st6" d="M46.2,10.8c0,2.1-0.3,3.6-1,4.7c-0.7,1.1-1.7,1.6-3.1,1.6c-1.3,0-2.3-0.5-3-1.6S38,12.9,38,10.8
		c0-2.1,0.3-3.6,1-4.7c0.7-1,1.7-1.6,3-1.6s2.3,0.5,3,1.6S46.2,8.8,46.2,10.8z M39.9,10.8c0,1.5,0.2,2.7,0.5,3.5
		c0.3,0.8,0.9,1.2,1.6,1.2c1.5,0,2.2-1.5,2.2-4.6S43.5,6.3,42,6.3c-0.8,0-1.3,0.4-1.6,1.1C40.1,8.1,39.9,9.2,39.9,10.8z M54.7,4.8
		l-11.1,20h-2l11.1-20L54.7,4.8L54.7,4.8z M58.2,18.8c0,2.1-0.3,3.6-1,4.7s-1.7,1.6-3.1,1.6c-1.3,0-2.3-0.5-3-1.6s-1-2.6-1-4.7
		s0.3-3.6,1-4.7c0.7-1,1.7-1.6,3-1.6s2.3,0.5,3,1.6C57.8,15.2,58.2,16.8,58.2,18.8z M51.9,18.8c0,1.6,0.2,2.7,0.5,3.5
		s0.9,1.2,1.7,1.2s1.3-0.4,1.7-1.1c0.4-0.8,0.5-1.9,0.5-3.5s-0.2-2.7-0.5-3.5c-0.4-0.8-0.9-1.1-1.7-1.1s-1.3,0.4-1.7,1.1
		C52.1,16.1,51.9,17.2,51.9,18.8z"/>
</g>
<g class="st5">
	<path class="st7" d="M3.2,42.8L0,34.2h1.4l1.8,5.1c0.4,1.2,0.7,2,0.7,2.3H4c0.1-0.3,0.2-0.8,0.5-1.7s1-2.8,2.1-5.7H8l-3.2,8.6
		L3.2,42.8L3.2,42.8z"/>
	<path class="st7" d="M9.3,31.9c0-0.3,0.1-0.5,0.2-0.7C9.6,31.1,9.8,31,10,31s0.4,0.1,0.5,0.2c0.2,0.1,0.2,0.4,0.2,0.6
		s-0.1,0.5-0.2,0.7c-0.2,0.1-0.3,0.2-0.5,0.2s-0.4-0.1-0.5-0.2S9.3,32.2,9.3,31.9z M10.7,42.8H9.4v-8.6h1.3V42.8z"/>
	<path class="st7" d="M19,40.5c0,0.8-0.3,1.4-0.9,1.8s-1.4,0.6-2.5,0.6s-2-0.2-2.7-0.5v-1.2c0.4,0.2,0.9,0.4,1.3,0.5
		c0.5,0.1,0.9,0.2,1.4,0.2c0.7,0,1.2-0.1,1.6-0.3c0.4-0.2,0.5-0.5,0.5-1c0-0.3-0.1-0.6-0.4-0.9s-0.9-0.5-1.7-0.8
		c-0.8-0.3-1.4-0.6-1.7-0.8s-0.6-0.5-0.8-0.8s-0.2-0.6-0.2-1c0-0.7,0.3-1.2,0.9-1.7c0.6-0.4,1.3-0.6,2.3-0.6c0.9,0,1.8,0.2,2.7,0.6
		l-0.5,1.1c-0.9-0.4-1.6-0.5-2.3-0.5c-0.6,0-1.1,0.1-1.4,0.3s-0.5,0.5-0.5,0.8c0,0.2,0.1,0.4,0.2,0.6s0.3,0.3,0.6,0.5
		c0.3,0.1,0.8,0.4,1.5,0.6c1,0.4,1.7,0.7,2.1,1.1C18.8,39.4,19,39.9,19,40.5z"/>
	<path class="st7" d="M21,31.9c0-0.3,0.1-0.5,0.2-0.7c0.1-0.1,0.3-0.2,0.5-0.2s0.4,0.1,0.5,0.2c0.2,0.1,0.2,0.4,0.2,0.6
		s-0.1,0.5-0.2,0.7c-0.2,0.1-0.3,0.2-0.5,0.2s-0.4-0.1-0.5-0.2C21,32.4,21,32.2,21,31.9z M22.4,42.8h-1.3v-8.6h1.3V42.8z"/>
	<path class="st7" d="M29.1,34.1c1.1,0,2,0.4,2.6,1.2c0.6,0.8,0.9,1.9,0.9,3.3s-0.3,2.5-0.9,3.3s-1.5,1.2-2.6,1.2
		c-0.6,0-1.1-0.1-1.5-0.3s-0.8-0.5-1.2-0.9h-0.1L26,43h-0.9V30.8h1.3v3c0,0.7,0,1.3-0.1,1.8h0.1C27,34.5,27.9,34.1,29.1,34.1z
		 M28.9,35.2c-0.9,0-1.5,0.3-1.9,0.8s-0.6,1.4-0.6,2.6s0.2,2.1,0.6,2.6s1,0.8,1.9,0.8c0.8,0,1.4-0.3,1.8-0.9s0.6-1.4,0.6-2.5
		s-0.2-1.9-0.6-2.5S29.7,35.2,28.9,35.2z"/>
	<path class="st7" d="M36.2,42.8h-1.3V30.6h1.3V42.8z"/>
	<path class="st7" d="M42.6,43c-1.3,0-2.3-0.4-3-1.2c-0.7-0.8-1.1-1.8-1.1-3.2c0-1.4,0.3-2.5,1-3.3c0.7-0.8,1.6-1.2,2.7-1.2
		s1.9,0.4,2.5,1.1s0.9,1.6,0.9,2.8v0.8h-5.9c0,1,0.3,1.8,0.8,2.3s1.2,0.8,2,0.8c0.9,0,1.8-0.2,2.7-0.6v1.2c-0.5,0.2-0.9,0.3-1.3,0.4
		C43.7,42.9,43.2,43,42.6,43z M42.2,35.2c-0.7,0-1.2,0.2-1.6,0.7c-0.4,0.4-0.6,1.1-0.7,1.9h4.5c0-0.8-0.2-1.4-0.5-1.9
		C43.4,35.4,42.9,35.2,42.2,35.2z"/>
	<path class="st7" d="M53.4,42.8h-1.3V30.6h1.3V42.8z"/>
	<path class="st7" d="M56,31.9c0-0.3,0.1-0.5,0.2-0.7c0.1-0.1,0.3-0.2,0.5-0.2s0.4,0.1,0.5,0.2c0.2,0.1,0.2,0.4,0.2,0.6
		s-0.1,0.5-0.2,0.7c-0.2,0.1-0.3,0.2-0.5,0.2s-0.4-0.1-0.5-0.2C56.1,32.4,56,32.2,56,31.9z M57.4,42.8h-1.3v-8.6h1.3V42.8z"/>
	<path class="st7" d="M67.2,34.2V35l-1.6,0.2c0.1,0.2,0.3,0.4,0.4,0.7c0.1,0.3,0.2,0.6,0.2,1c0,0.8-0.3,1.5-0.9,2
		c-0.6,0.5-1.4,0.8-2.4,0.8c-0.3,0-0.5,0-0.7-0.1c-0.6,0.3-0.8,0.7-0.8,1.1c0,0.2,0.1,0.4,0.3,0.5s0.5,0.2,1,0.2h1.5
		c0.9,0,1.6,0.2,2.1,0.6s0.7,1,0.7,1.7c0,0.9-0.4,1.7-1.1,2.2c-0.8,0.5-1.9,0.7-3.3,0.7c-1.1,0-2-0.2-2.6-0.6s-0.9-1-0.9-1.8
		c0-0.5,0.2-1,0.5-1.4s0.8-0.6,1.4-0.8c-0.2-0.1-0.4-0.3-0.6-0.5s-0.2-0.5-0.2-0.7c0-0.3,0.1-0.6,0.2-0.8c0.2-0.2,0.4-0.5,0.8-0.7
		c-0.4-0.2-0.8-0.5-1.1-0.9s-0.4-0.9-0.4-1.5c0-0.9,0.3-1.7,0.8-2.2s1.4-0.8,2.4-0.8c0.4,0,0.9,0.1,1.2,0.2L67.2,34.2L67.2,34.2z
		 M60.4,44.2c0,0.5,0.2,0.8,0.6,1.1s1,0.4,1.7,0.4c1.1,0,1.9-0.2,2.4-0.5s0.8-0.8,0.8-1.3s-0.1-0.8-0.4-1c-0.3-0.2-0.8-0.3-1.6-0.3
		h-1.6c-0.6,0-1,0.1-1.4,0.4S60.4,43.7,60.4,44.2z M61.1,37c0,0.6,0.2,1.1,0.5,1.4s0.8,0.5,1.4,0.5c1.3,0,1.9-0.6,1.9-1.8
		c0-1.3-0.6-1.9-1.9-1.9c-0.6,0-1.1,0.2-1.4,0.5S61.1,36.3,61.1,37z"/>
	<path class="st7" d="M74.8,42.8v-5.5c0-0.7-0.2-1.2-0.5-1.6c-0.3-0.3-0.8-0.5-1.5-0.5c-0.9,0-1.6,0.2-2,0.7s-0.6,1.3-0.6,2.4v4.5
		H69V30.6h1.3v3.7c0,0.4,0,0.8-0.1,1.1h0.1c0.3-0.4,0.6-0.7,1.1-1c0.5-0.2,1-0.4,1.6-0.4c1,0,1.8,0.2,2.4,0.7s0.8,1.3,0.8,2.4v5.6
		L74.8,42.8L74.8,42.8z"/>
	<path class="st7" d="M81.5,41.9c0.2,0,0.5,0,0.7-0.1c0.2,0,0.4-0.1,0.5-0.1v1c-0.1,0.1-0.3,0.1-0.6,0.2S81.6,43,81.4,43
		c-1.7,0-2.5-0.9-2.5-2.6v-5.1h-1.2v-0.6l1.2-0.5l0.5-1.8h0.8v2h2.5v1h-2.5v5c0,0.5,0.1,0.9,0.4,1.2C80.8,41.8,81.1,41.9,81.5,41.9z
		"/>
</g>
<g class="st5">
	<path class="st7" d="M4.1,59.9c0.2,0,0.5,0,0.7-0.1c0.2,0,0.4-0.1,0.5-0.1v1c-0.1,0.1-0.3,0.1-0.6,0.2S4.2,61,4,61
		c-1.7,0-2.5-0.9-2.5-2.6v-5.1H0.3v-0.6l1.2-0.5L2,50.4h0.8v2h2.5v1H2.8v5c0,0.5,0.1,0.9,0.4,1.2C3.4,59.8,3.7,59.9,4.1,59.9z"/>
	<path class="st7" d="M10.9,52.1c0.4,0,0.7,0,1,0.1l-0.2,1.2c-0.4-0.1-0.7-0.1-0.9-0.1c-0.7,0-1.3,0.3-1.8,0.8s-0.7,1.3-0.7,2.1v4.6
		H7v-8.6h1.1l0.1,1.6h0.1c0.3-0.6,0.7-1,1.1-1.3C9.9,52.2,10.4,52.1,10.9,52.1z"/>
	<path class="st7" d="M18.8,60.8l-0.3-1.2h-0.1c-0.4,0.5-0.9,0.9-1.3,1.1s-1,0.3-1.6,0.3c-0.8,0-1.5-0.2-2-0.7
		c-0.5-0.4-0.7-1.1-0.7-1.9c0-1.7,1.4-2.6,4.1-2.7h1.5v-0.5c0-0.7-0.1-1.2-0.4-1.5s-0.8-0.5-1.4-0.5c-0.7,0-1.5,0.2-2.4,0.7l-0.4-1
		c0.4-0.2,0.9-0.4,1.4-0.5s1-0.2,1.5-0.2c1,0,1.8,0.2,2.3,0.7s0.7,1.2,0.7,2.2v5.8L18.8,60.8L18.8,60.8z M15.9,59.9
		c0.8,0,1.4-0.2,1.9-0.7s0.7-1.1,0.7-1.9v-0.8l-1.3,0.1c-1,0-1.8,0.2-2.2,0.5c-0.5,0.3-0.7,0.7-0.7,1.3c0,0.5,0.1,0.8,0.4,1.1
		C15,59.8,15.4,59.9,15.9,59.9z"/>
	<path class="st7" d="M28.3,60.8v-5.5c0-0.7-0.2-1.2-0.5-1.6c-0.3-0.3-0.8-0.5-1.5-0.5c-0.9,0-1.6,0.2-2,0.7s-0.6,1.3-0.6,2.4v4.5
		h-1.3v-8.6h1.1l0.2,1.2h0.1c0.3-0.4,0.6-0.7,1.1-1c0.5-0.2,1-0.3,1.6-0.3c1,0,1.8,0.2,2.3,0.7s0.8,1.3,0.8,2.4v5.6L28.3,60.8
		L28.3,60.8z"/>
	<path class="st7" d="M37.8,58.5c0,0.8-0.3,1.4-0.9,1.8s-1.4,0.6-2.5,0.6s-2-0.2-2.7-0.5v-1.2c0.4,0.2,0.9,0.4,1.3,0.5
		c0.5,0.1,0.9,0.2,1.4,0.2c0.7,0,1.2-0.1,1.6-0.3c0.4-0.2,0.5-0.5,0.5-1c0-0.3-0.1-0.6-0.4-0.9s-0.9-0.5-1.7-0.8
		c-0.8-0.3-1.4-0.6-1.7-0.8s-0.6-0.5-0.8-0.8s-0.2-0.6-0.2-1c0-0.7,0.3-1.2,0.9-1.7c0.6-0.4,1.3-0.6,2.3-0.6c0.9,0,1.8,0.2,2.7,0.6
		l-0.5,1.1c-0.9-0.4-1.6-0.5-2.3-0.5c-0.6,0-1.1,0.1-1.4,0.3s-0.5,0.5-0.5,0.8c0,0.2,0.1,0.4,0.2,0.6s0.3,0.3,0.6,0.5
		c0.3,0.1,0.8,0.4,1.5,0.6c1,0.4,1.7,0.7,2.1,1.1C37.6,57.4,37.8,57.9,37.8,58.5z"/>
	<path class="st7" d="M50.8,60.8v-5.6c0-0.7-0.1-1.2-0.4-1.5c-0.3-0.3-0.7-0.5-1.4-0.5c-0.8,0-1.4,0.2-1.8,0.7
		c-0.4,0.5-0.6,1.2-0.6,2.1v4.8h-1.3v-5.6c0-0.7-0.1-1.2-0.4-1.5c-0.3-0.3-0.7-0.5-1.4-0.5c-0.8,0-1.4,0.2-1.8,0.7
		c-0.4,0.5-0.6,1.3-0.6,2.4v4.5h-1.3v-8.6h1.1l0.2,1.2h0.1c0.2-0.4,0.6-0.7,1-1s0.9-0.4,1.5-0.4c1.3,0,2.2,0.5,2.6,1.5h0.1
		c0.3-0.4,0.6-0.8,1.1-1.1s1-0.4,1.7-0.4c1,0,1.7,0.2,2.2,0.7s0.7,1.3,0.7,2.4v5.6L50.8,60.8L50.8,60.8z"/>
	<path class="st7" d="M54.7,49.9c0-0.3,0.1-0.5,0.2-0.7c0.1-0.1,0.3-0.2,0.5-0.2s0.4,0.1,0.5,0.2c0.2,0.1,0.2,0.4,0.2,0.6
		s-0.1,0.5-0.2,0.7c-0.2,0.1-0.3,0.2-0.5,0.2s-0.4-0.1-0.5-0.2C54.8,50.4,54.7,50.2,54.7,49.9z M56.1,60.8h-1.3v-8.6h1.3V60.8z"/>
	<path class="st7" d="M64.4,58.5c0,0.8-0.3,1.4-0.9,1.8S62,61,61,61c-1.1,0-2-0.2-2.7-0.5v-1.2c0.4,0.2,0.9,0.4,1.3,0.5
		c0.5,0.1,0.9,0.2,1.4,0.2c0.7,0,1.2-0.1,1.6-0.3c0.4-0.2,0.5-0.5,0.5-1c0-0.3-0.1-0.6-0.4-0.9S61.8,57.3,61,57s-1.4-0.6-1.7-0.8
		s-0.6-0.5-0.8-0.8s-0.2-0.6-0.2-1c0-0.7,0.3-1.2,0.9-1.7c0.6-0.4,1.3-0.6,2.3-0.6c0.9,0,1.8,0.2,2.7,0.6l-0.5,1.1
		c-0.9-0.4-1.6-0.5-2.3-0.5c-0.6,0-1.1,0.1-1.4,0.3s-0.5,0.5-0.5,0.8c0,0.2,0.1,0.4,0.2,0.6s0.3,0.3,0.6,0.5
		c0.3,0.1,0.8,0.4,1.5,0.6c1,0.4,1.7,0.7,2.1,1.1C64.2,57.4,64.4,57.9,64.4,58.5z"/>
	<path class="st7" d="M72,58.5c0,0.8-0.3,1.4-0.9,1.8s-1.4,0.6-2.5,0.6s-2-0.2-2.7-0.5v-1.2c0.4,0.2,0.9,0.4,1.3,0.5
		c0.5,0.1,0.9,0.2,1.4,0.2c0.7,0,1.2-0.1,1.6-0.3c0.4-0.2,0.5-0.5,0.5-1c0-0.3-0.1-0.6-0.4-0.9s-0.9-0.5-1.7-0.8s-1.4-0.6-1.7-0.8
		s-0.6-0.5-0.8-0.8s-0.2-0.6-0.2-1c0-0.7,0.3-1.2,0.9-1.7c0.6-0.4,1.3-0.6,2.3-0.6c0.9,0,1.8,0.2,2.7,0.6l-0.5,1.1
		c-0.9-0.4-1.6-0.5-2.3-0.5c-0.6,0-1.1,0.1-1.4,0.3s-0.5,0.5-0.5,0.8c0,0.2,0.1,0.4,0.2,0.6s0.3,0.3,0.6,0.5
		c0.3,0.1,0.8,0.4,1.5,0.6c1,0.4,1.7,0.7,2.1,1.1C71.8,57.4,72,57.9,72,58.5z"/>
	<path class="st7" d="M74,49.9c0-0.3,0.1-0.5,0.2-0.7c0.1-0.1,0.3-0.2,0.5-0.2s0.4,0.1,0.5,0.2c0.2,0.1,0.2,0.4,0.2,0.6
		s-0.1,0.5-0.2,0.7c-0.2,0.1-0.3,0.2-0.5,0.2s-0.4-0.1-0.5-0.2C74.1,50.4,74,50.2,74,49.9z M75.4,60.8h-1.3v-8.6h1.3V60.8z"/>
	<path class="st7" d="M85.5,56.5c0,1.4-0.4,2.5-1.1,3.3S82.7,61,81.5,61c-0.8,0-1.4-0.2-2-0.5s-1.1-0.9-1.4-1.5
		c-0.3-0.7-0.5-1.5-0.5-2.4c0-1.4,0.3-2.5,1-3.3s1.7-1.2,2.9-1.2s2.1,0.4,2.9,1.2C85.2,54.1,85.5,55.2,85.5,56.5z M79,56.5
		c0,1.1,0.2,1.9,0.7,2.5s1.1,0.9,1.9,0.9c0.8,0,1.5-0.3,1.9-0.9s0.7-1.4,0.7-2.5S84,54.6,83.5,54c-0.4-0.6-1.1-0.8-1.9-0.8
		c-0.8,0-1.5,0.3-1.9,0.8C79.2,54.6,79,55.4,79,56.5z"/>
	<path class="st7" d="M93.7,60.8v-5.5c0-0.7-0.2-1.2-0.5-1.6c-0.3-0.3-0.8-0.5-1.5-0.5c-0.9,0-1.6,0.2-2,0.7s-0.6,1.3-0.6,2.4v4.5
		h-1.3v-8.6h1.1l0.2,1.2h0.1c0.3-0.4,0.6-0.7,1.1-1c0.5-0.2,1-0.3,1.6-0.3c1,0,1.8,0.2,2.3,0.7s0.8,1.3,0.8,2.4v5.6L93.7,60.8
		L93.7,60.8z"/>
</g>
<g class="st5">
	<path class="st6" d="M665.3,143.5c0-4.5,0.9-7.8,2.6-10.1c1.7-2.2,4.3-3.3,7.7-3.3c1.2,0,2.1,0.1,2.8,0.3v2.2
		c-0.8-0.3-1.7-0.4-2.8-0.4c-2.4,0-4.3,0.8-5.6,2.3s-2,3.9-2.1,7.2h0.2c1.1-1.8,3-2.7,5.4-2.7c2.1,0,3.7,0.6,4.9,1.9
		c1.2,1.2,1.8,2.9,1.8,5c0,2.4-0.6,4.2-1.9,5.6s-3,2-5.3,2c-2.4,0-4.2-0.9-5.6-2.7C666,149.2,665.3,146.7,665.3,143.5z M673,151.4
		c1.5,0,2.6-0.5,3.4-1.4c0.8-0.9,1.2-2.3,1.2-4c0-1.5-0.4-2.7-1.1-3.6c-0.8-0.9-1.9-1.3-3.4-1.3c-0.9,0-1.8,0.2-2.6,0.6
		s-1.4,0.9-1.9,1.6s-0.7,1.4-0.7,2.1c0,1.1,0.2,2.1,0.6,3c0.4,0.9,1,1.7,1.8,2.2C671.1,151.1,672,151.4,673,151.4z"/>
</g>
<g class="st5">
	<path class="st6" d="M687.8,145.6l-5.2-7.3h2.6l4,5.7l3.9-5.7h2.6l-5.2,7.3l5.5,7.7h-2.6l-4.2-6.1l-4.2,6.1h-2.6L687.8,145.6z"/>
</g>
<g class="st5">
	<path class="st7" d="M670.4,169c0,0.8-0.3,1.4-0.9,1.8s-1.4,0.6-2.5,0.6s-2-0.2-2.7-0.5v-1.2c0.4,0.2,0.9,0.4,1.3,0.5
		c0.5,0.1,0.9,0.2,1.4,0.2c0.7,0,1.2-0.1,1.6-0.3c0.4-0.2,0.5-0.5,0.5-1c0-0.3-0.1-0.6-0.4-0.9s-0.9-0.5-1.7-0.8s-1.4-0.6-1.7-0.8
		s-0.6-0.5-0.8-0.8s-0.2-0.6-0.2-1c0-0.7,0.3-1.2,0.9-1.7c0.6-0.4,1.3-0.6,2.3-0.6c0.9,0,1.8,0.2,2.7,0.6l-0.5,1.1
		c-0.9-0.4-1.6-0.5-2.3-0.5c-0.6,0-1.1,0.1-1.4,0.3s-0.5,0.5-0.5,0.8c0,0.2,0.1,0.4,0.2,0.6s0.3,0.3,0.6,0.5
		c0.3,0.1,0.8,0.4,1.5,0.6c1,0.4,1.7,0.7,2.1,1.1C670.2,167.9,670.4,168.4,670.4,169z"/>
	<path class="st7" d="M675.3,170.4c0.2,0,0.5,0,0.7-0.1c0.2,0,0.4-0.1,0.5-0.1v1c-0.1,0.1-0.3,0.1-0.6,0.2s-0.5,0.1-0.7,0.1
		c-1.7,0-2.5-0.9-2.5-2.6v-5.1h-1.2v-0.6l1.2-0.5l0.5-1.8h0.8v2h2.5v1H674v5c0,0.5,0.1,0.9,0.4,1.2
		C674.5,170.3,674.8,170.4,675.3,170.4z"/>
	<path class="st7" d="M685.5,167c0,1.4-0.4,2.5-1.1,3.3s-1.7,1.2-2.9,1.2c-0.8,0-1.4-0.2-2-0.5s-1.1-0.9-1.4-1.5
		c-0.3-0.7-0.5-1.5-0.5-2.4c0-1.4,0.3-2.5,1-3.3s1.7-1.2,2.9-1.2s2.1,0.4,2.9,1.2C685.2,164.6,685.5,165.7,685.5,167z M679,167
		c0,1.1,0.2,1.9,0.7,2.5s1.1,0.9,1.9,0.9c0.8,0,1.5-0.3,1.9-0.9s0.7-1.4,0.7-2.5s-0.2-1.9-0.7-2.5c-0.4-0.6-1.1-0.8-1.9-0.8
		c-0.8,0-1.5,0.3-1.9,0.8C679.2,165.1,679,165.9,679,167z"/>
	<path class="st7" d="M693.7,171.3v-5.5c0-0.7-0.2-1.2-0.5-1.6c-0.3-0.3-0.8-0.5-1.5-0.5c-0.9,0-1.6,0.2-2,0.7s-0.6,1.3-0.6,2.4v4.5
		h-1.3v-8.6h1.1l0.2,1.2h0.1c0.3-0.4,0.6-0.7,1.1-1c0.5-0.2,1-0.3,1.6-0.3c1,0,1.8,0.2,2.3,0.7s0.8,1.3,0.8,2.4v5.6L693.7,171.3
		L693.7,171.3z"/>
	<path class="st7" d="M701.3,171.5c-1.3,0-2.3-0.4-3-1.2c-0.7-0.8-1.1-1.8-1.1-3.2c0-1.4,0.3-2.5,1-3.3s1.6-1.2,2.7-1.2
		c1.1,0,1.9,0.4,2.5,1.1s0.9,1.6,0.9,2.8v0.8h-5.9c0,1,0.3,1.8,0.8,2.3s1.2,0.8,2,0.8c0.9,0,1.8-0.2,2.7-0.6v1.2
		c-0.5,0.2-0.9,0.3-1.3,0.4C702.3,171.4,701.8,171.5,701.3,171.5z M700.9,163.7c-0.7,0-1.2,0.2-1.6,0.7c-0.4,0.4-0.7,1.1-0.7,1.9
		h4.5c0-0.8-0.2-1.4-0.5-1.9C702.1,163.9,701.6,163.7,700.9,163.7z"/>
	<path class="st7" d="M714.2,171.5c-1.2,0-2.2-0.4-2.9-1.1s-1-1.8-1-3.2c0-1.4,0.3-2.5,1-3.3s1.7-1.2,2.9-1.2c0.4,0,0.8,0,1.2,0.1
		s0.7,0.2,1,0.3l-0.4,1.1c-0.3-0.1-0.6-0.2-0.9-0.3c-0.3-0.1-0.6-0.1-0.9-0.1c-1.7,0-2.6,1.1-2.6,3.3c0,1.1,0.2,1.9,0.6,2.4
		c0.4,0.6,1.1,0.8,1.9,0.8c0.7,0,1.4-0.2,2.2-0.5v1.1C715.8,171.3,715.1,171.5,714.2,171.5z"/>
	<path class="st7" d="M724.2,171.3v-5.5c0-0.7-0.2-1.2-0.5-1.6c-0.3-0.3-0.8-0.5-1.5-0.5c-0.9,0-1.6,0.2-2,0.7s-0.6,1.3-0.6,2.4v4.5
		h-1.3v-12.2h1.3v3.7c0,0.4,0,0.8-0.1,1.1h0.1c0.3-0.4,0.6-0.7,1.1-1c0.5-0.2,1-0.4,1.6-0.4c1,0,1.8,0.2,2.4,0.7s0.8,1.3,0.8,2.4
		v5.6L724.2,171.3L724.2,171.3z"/>
	<path class="st7" d="M728.1,160.4c0-0.3,0.1-0.5,0.2-0.7c0.1-0.1,0.3-0.2,0.5-0.2s0.4,0.1,0.5,0.2c0.2,0.1,0.2,0.4,0.2,0.6
		s-0.1,0.5-0.2,0.7c-0.2,0.1-0.3,0.2-0.5,0.2s-0.4-0.1-0.5-0.2S728.1,160.7,728.1,160.4z M729.5,171.3h-1.3v-8.6h1.3V171.3z"/>
	<path class="st7" d="M736.2,171.5c-0.6,0-1.1-0.1-1.5-0.3s-0.8-0.5-1.2-0.9h-0.1c0.1,0.5,0.1,1,0.1,1.4v3.5h-1.3v-12.4h1.1l0.2,1.2
		h0.1c0.3-0.5,0.7-0.8,1.2-1c0.4-0.2,1-0.3,1.5-0.3c1.1,0,2,0.4,2.6,1.2s0.9,1.9,0.9,3.3s-0.3,2.5-0.9,3.3
		C738.2,171.1,737.4,171.5,736.2,171.5z M736.1,163.7c-0.9,0-1.5,0.2-1.9,0.7s-0.6,1.3-0.6,2.3v0.3c0,1.2,0.2,2.1,0.6,2.6
		c0.4,0.5,1,0.8,1.9,0.8c0.7,0,1.3-0.3,1.7-0.9s0.6-1.4,0.6-2.5s-0.2-1.9-0.6-2.5C737.4,164,736.8,163.7,736.1,163.7z"/>
</g>
<g class="st5">
	<path class="st7" d="M668.8,180.6c0.4,0,0.7,0,1,0.1l-0.2,1.2c-0.4-0.1-0.7-0.1-0.9-0.1c-0.7,0-1.3,0.3-1.8,0.8s-0.7,1.3-0.7,2.1
		v4.6h-1.3v-8.6h1.1l0.1,1.6h0.1c0.3-0.6,0.7-1,1.1-1.3C667.8,180.7,668.2,180.6,668.8,180.6z"/>
	<path class="st7" d="M675,189.5c-1.3,0-2.3-0.4-3-1.2c-0.7-0.8-1.1-1.8-1.1-3.2c0-1.4,0.3-2.5,1-3.3s1.6-1.2,2.7-1.2
		c1.1,0,1.9,0.4,2.5,1.1s0.9,1.6,0.9,2.8v0.8h-5.9c0,1,0.3,1.8,0.8,2.3s1.2,0.8,2,0.8c0.9,0,1.8-0.2,2.7-0.6v1.2
		c-0.5,0.2-0.9,0.3-1.3,0.4C676.1,189.4,675.6,189.5,675,189.5z M674.7,181.7c-0.7,0-1.2,0.2-1.6,0.7c-0.4,0.4-0.7,1.1-0.7,1.9h4.5
		c0-0.8-0.2-1.4-0.5-1.9C675.9,181.9,675.3,181.7,674.7,181.7z"/>
	<path class="st7" d="M685.9,187c0,0.8-0.3,1.4-0.9,1.8s-1.4,0.6-2.5,0.6s-2-0.2-2.7-0.5v-1.2c0.4,0.2,0.9,0.4,1.3,0.5
		c0.5,0.1,0.9,0.2,1.4,0.2c0.7,0,1.2-0.1,1.6-0.3c0.4-0.2,0.5-0.5,0.5-1c0-0.3-0.1-0.6-0.4-0.9s-0.9-0.5-1.7-0.8s-1.4-0.6-1.7-0.8
		s-0.6-0.5-0.8-0.8s-0.2-0.6-0.2-1c0-0.7,0.3-1.2,0.9-1.7c0.6-0.4,1.3-0.6,2.3-0.6c0.9,0,1.8,0.2,2.7,0.6l-0.5,1.1
		c-0.9-0.4-1.6-0.5-2.3-0.5c-0.6,0-1.1,0.1-1.4,0.3s-0.5,0.5-0.5,0.8c0,0.2,0.1,0.4,0.2,0.6s0.3,0.3,0.6,0.5
		c0.3,0.1,0.8,0.4,1.5,0.6c1,0.4,1.7,0.7,2.1,1.1C685.7,185.9,685.9,186.4,685.9,187z"/>
	<path class="st7" d="M687.9,178.4c0-0.3,0.1-0.5,0.2-0.7c0.1-0.1,0.3-0.2,0.5-0.2s0.4,0.1,0.5,0.2c0.2,0.1,0.2,0.4,0.2,0.6
		s-0.1,0.5-0.2,0.7c-0.2,0.1-0.3,0.2-0.5,0.2s-0.4-0.1-0.5-0.2C688,178.9,687.9,178.7,687.9,178.4z M689.3,189.3H688v-8.6h1.3V189.3
		z"/>
	<path class="st7" d="M697.6,187c0,0.8-0.3,1.4-0.9,1.8s-1.4,0.6-2.5,0.6s-2-0.2-2.7-0.5v-1.2c0.4,0.2,0.9,0.4,1.3,0.5
		c0.5,0.1,0.9,0.2,1.4,0.2c0.7,0,1.2-0.1,1.6-0.3c0.4-0.2,0.5-0.5,0.5-1c0-0.3-0.1-0.6-0.4-0.9s-0.9-0.5-1.7-0.8s-1.4-0.6-1.7-0.8
		s-0.6-0.5-0.8-0.8s-0.2-0.6-0.2-1c0-0.7,0.3-1.2,0.9-1.7c0.6-0.4,1.3-0.6,2.3-0.6c0.9,0,1.8,0.2,2.7,0.6l-0.5,1.1
		c-0.9-0.4-1.6-0.5-2.3-0.5c-0.6,0-1.1,0.1-1.4,0.3s-0.5,0.5-0.5,0.8c0,0.2,0.1,0.4,0.2,0.6s0.3,0.3,0.6,0.5
		c0.3,0.1,0.8,0.4,1.5,0.6c1,0.4,1.7,0.7,2.1,1.1C697.4,185.9,697.6,186.4,697.6,187z"/>
	<path class="st7" d="M702.5,188.4c0.2,0,0.5,0,0.7-0.1c0.2,0,0.4-0.1,0.5-0.1v1c-0.1,0.1-0.3,0.1-0.6,0.2s-0.5,0.1-0.7,0.1
		c-1.7,0-2.5-0.9-2.5-2.6v-5.1h-1.2v-0.6l1.2-0.5l0.5-1.8h0.8v2h2.5v1h-2.5v5c0,0.5,0.1,0.9,0.4,1.2
		C701.7,188.3,702,188.4,702.5,188.4z"/>
	<path class="st7" d="M710.6,189.3l-0.3-1.2h-0.1c-0.4,0.5-0.9,0.9-1.3,1.1c-0.4,0.2-1,0.3-1.6,0.3c-0.8,0-1.5-0.2-2-0.7
		c-0.5-0.4-0.7-1.1-0.7-1.9c0-1.7,1.4-2.6,4.1-2.7h1.5v-0.5c0-0.7-0.1-1.2-0.4-1.5s-0.8-0.5-1.4-0.5c-0.7,0-1.5,0.2-2.4,0.7l-0.4-1
		c0.4-0.2,0.9-0.4,1.4-0.5s1-0.2,1.5-0.2c1,0,1.8,0.2,2.3,0.7s0.7,1.2,0.7,2.2v5.8L710.6,189.3L710.6,189.3z M707.7,188.4
		c0.8,0,1.4-0.2,1.9-0.7s0.7-1.1,0.7-1.9V185l-1.3,0.1c-1,0-1.8,0.2-2.2,0.5c-0.5,0.3-0.7,0.7-0.7,1.3c0,0.5,0.1,0.8,0.4,1.1
		C706.8,188.3,707.2,188.4,707.7,188.4z"/>
	<path class="st7" d="M720.1,189.3v-5.5c0-0.7-0.2-1.2-0.5-1.6c-0.3-0.3-0.8-0.5-1.5-0.5c-0.9,0-1.6,0.2-2,0.7s-0.6,1.3-0.6,2.4v4.5
		h-1.3v-8.6h1.1l0.2,1.2h0.1c0.3-0.4,0.6-0.7,1.1-1c0.5-0.2,1-0.3,1.6-0.3c1,0,1.8,0.2,2.3,0.7s0.8,1.3,0.8,2.4v5.6L720.1,189.3
		L720.1,189.3z"/>
	<path class="st7" d="M727.5,189.5c-1.2,0-2.2-0.4-2.9-1.1s-1-1.8-1-3.2c0-1.4,0.3-2.5,1-3.3s1.7-1.2,2.9-1.2c0.4,0,0.8,0,1.2,0.1
		s0.7,0.2,1,0.3l-0.4,1.1c-0.3-0.1-0.6-0.2-0.9-0.3c-0.3-0.1-0.6-0.1-0.9-0.1c-1.7,0-2.6,1.1-2.6,3.3c0,1.1,0.2,1.9,0.6,2.4
		c0.4,0.6,1.1,0.8,1.9,0.8c0.7,0,1.4-0.2,2.2-0.5v1.1C729.1,189.3,728.4,189.5,727.5,189.5z"/>
	<path class="st7" d="M735.3,189.5c-1.3,0-2.3-0.4-3-1.2c-0.7-0.8-1.1-1.8-1.1-3.2c0-1.4,0.3-2.5,1-3.3s1.6-1.2,2.7-1.2
		c1.1,0,1.9,0.4,2.5,1.1s0.9,1.6,0.9,2.8v0.8h-5.9c0,1,0.3,1.8,0.8,2.3s1.2,0.8,2,0.8c0.9,0,1.8-0.2,2.7-0.6v1.2
		c-0.5,0.2-0.9,0.3-1.3,0.4C736.4,189.4,735.9,189.5,735.3,189.5z M734.9,181.7c-0.7,0-1.2,0.2-1.6,0.7c-0.4,0.4-0.7,1.1-0.7,1.9
		h4.5c0-0.8-0.2-1.4-0.5-1.9C736.1,181.9,735.6,181.7,734.9,181.7z"/>
</g>
<g class="st5">
	<path class="st6" d="M16.6,96.4c0,8.9-3.5,13.4-10.4,13.4c-1.2,0-2.2-0.1-2.9-0.3v-2.2c0.8,0.3,1.8,0.4,2.8,0.4
		c2.5,0,4.4-0.8,5.7-2.3c1.3-1.5,2-3.9,2.1-7.1h-0.2c-0.6,0.9-1.3,1.5-2.3,2c-0.9,0.5-2,0.7-3.2,0.7c-2,0-3.6-0.6-4.8-1.8
		c-1.2-1.2-1.8-2.9-1.8-5.1c0-2.4,0.7-4.2,2-5.6s3.1-2.1,5.2-2.1c1.6,0,2.9,0.4,4.1,1.2c1.2,0.8,2.1,2,2.7,3.5
		C16.3,92.5,16.6,94.3,16.6,96.4z M8.9,88.5c-1.5,0-2.6,0.5-3.5,1.4c-0.8,1-1.2,2.3-1.2,4c0,1.5,0.4,2.7,1.1,3.5s1.9,1.3,3.4,1.3
		c0.9,0,1.8-0.2,2.6-0.6c0.8-0.4,1.4-0.9,1.9-1.6s0.7-1.4,0.7-2.1c0-1.1-0.2-2.1-0.6-3s-1-1.7-1.8-2.2S9.9,88.5,8.9,88.5z"/>
	<path class="st6" d="M34.9,96.4c0,8.9-3.5,13.4-10.4,13.4c-1.2,0-2.2-0.1-2.9-0.3v-2.2c0.8,0.3,1.8,0.4,2.8,0.4
		c2.5,0,4.4-0.8,5.7-2.3c1.3-1.5,2-3.9,2.1-7.1H32c-0.6,0.9-1.3,1.5-2.3,2c-0.9,0.5-2,0.7-3.2,0.7c-2,0-3.6-0.6-4.8-1.8
		c-1.2-1.2-1.8-2.9-1.8-5.1c0-2.4,0.7-4.2,2-5.6s3.1-2.1,5.2-2.1c1.6,0,2.9,0.4,4.1,1.2c1.2,0.8,2.1,2,2.7,3.5
		C34.6,92.5,34.9,94.3,34.9,96.4z M27.2,88.5c-1.5,0-2.6,0.5-3.5,1.4c-0.8,1-1.2,2.3-1.2,4c0,1.5,0.4,2.7,1.1,3.5s1.9,1.3,3.4,1.3
		c0.9,0,1.8-0.2,2.6-0.6c0.8-0.4,1.4-0.9,1.9-1.6s0.7-1.4,0.7-2.1c0-1.1-0.2-2.1-0.6-3s-1-1.7-1.8-2.2S28.2,88.5,27.2,88.5z"/>
</g>
<g class="st5">
	<path class="st6" d="M46.2,95.4c0,2.1-0.3,3.6-1,4.7s-1.7,1.6-3.1,1.6c-1.3,0-2.3-0.5-3-1.6S38,97.5,38,95.4s0.3-3.6,1-4.7
		c0.7-1,1.7-1.6,3-1.6s2.3,0.5,3,1.6S46.2,93.4,46.2,95.4z M39.9,95.4c0,1.5,0.2,2.7,0.5,3.5c0.3,0.8,0.9,1.2,1.6,1.2
		c1.5,0,2.2-1.5,2.2-4.6s-0.7-4.6-2.2-4.6c-0.8,0-1.3,0.4-1.6,1.1C40.1,92.7,39.9,93.9,39.9,95.4z M54.7,89.5l-11.1,20h-2l11.1-20
		H54.7z M58.2,103.4c0,2.1-0.3,3.6-1,4.7s-1.7,1.6-3.1,1.6c-1.3,0-2.3-0.5-3-1.6s-1-2.6-1-4.7s0.3-3.6,1-4.7c0.7-1,1.7-1.6,3-1.6
		s2.3,0.5,3,1.6S58.2,101.4,58.2,103.4z M51.9,103.4c0,1.6,0.2,2.7,0.5,3.5s0.9,1.2,1.7,1.2s1.3-0.4,1.7-1.1
		c0.4-0.8,0.5-1.9,0.5-3.5s-0.2-2.7-0.5-3.5c-0.4-0.8-0.9-1.1-1.7-1.1s-1.3,0.4-1.7,1.1C52.1,100.7,51.9,101.9,51.9,103.4z"/>
</g>
<g class="st5">
	<path class="st7" d="M10.2,116v7.4c0,1.3-0.4,2.3-1.2,3.1c-0.8,0.7-1.9,1.1-3.2,1.1s-2.4-0.4-3.2-1.1c-0.8-0.8-1.1-1.8-1.1-3.1V116
		h1.3v7.5c0,1,0.3,1.7,0.8,2.2s1.3,0.8,2.3,0.8s1.7-0.3,2.2-0.8s0.8-1.2,0.8-2.2V116H10.2z"/>
	<path class="st7" d="M19.7,116h1.4L17,127.4h-1.3L11.6,116H13l2.6,7.4c0.3,0.8,0.5,1.7,0.7,2.5c0.2-0.8,0.4-1.7,0.7-2.5L19.7,116z"
		/>
	<path class="st7" d="M29.9,127.5l-1.4-3.6h-4.6l-1.4,3.6h-1.3l4.5-11.5h1.1l4.5,11.5H29.9z M28.1,122.6l-1.3-3.5
		c-0.2-0.4-0.3-1-0.5-1.6c-0.1,0.5-0.3,1-0.5,1.6l-1.3,3.5H28.1z"/>
	<path class="st7" d="M37,116l-4.3,11.4h-1.3l4.3-11.4H37z"/>
	<path class="st7" d="M47.4,116v7.4c0,1.3-0.4,2.3-1.2,3.1c-0.8,0.7-1.9,1.1-3.2,1.1s-2.4-0.4-3.2-1.1c-0.8-0.8-1.1-1.8-1.1-3.1V116
		H40v7.5c0,1,0.3,1.7,0.8,2.2s1.3,0.8,2.3,0.8s1.7-0.3,2.2-0.8s0.8-1.2,0.8-2.2V116H47.4z"/>
	<path class="st7" d="M56.9,116h1.4l-4.1,11.4h-1.3L48.8,116h1.4l2.6,7.4c0.3,0.8,0.5,1.7,0.7,2.5c0.2-0.8,0.4-1.7,0.7-2.5L56.9,116
		z"/>
	<path class="st7" d="M59.9,116h3.2c1.5,0,2.6,0.2,3.3,0.7s1,1.2,1,2.1c0,0.7-0.2,1.2-0.6,1.7c-0.4,0.4-0.9,0.7-1.7,0.9v0.1
		c1.7,0.3,2.6,1.2,2.6,2.7c0,1-0.3,1.8-1,2.4s-1.7,0.9-2.9,0.9h-4L59.9,116L59.9,116z M61.2,120.9h2.2c0.9,0,1.6-0.1,2-0.4
		s0.6-0.8,0.6-1.5c0-0.6-0.2-1.1-0.7-1.4s-1.2-0.4-2.2-0.4h-2L61.2,120.9L61.2,120.9z M61.2,122v4.3h2.4c0.9,0,1.6-0.2,2.1-0.5
		c0.5-0.4,0.7-0.9,0.7-1.7c0-0.7-0.2-1.2-0.7-1.6s-1.2-0.5-2.2-0.5L61.2,122L61.2,122z"/>
</g>
<g class="st5">
	<path class="st7" d="M5.4,145.6c-0.6,0-1.1-0.1-1.5-0.3s-0.8-0.5-1.2-0.9H2.6c0.1,0.5,0.1,1,0.1,1.4v3.5H1.4v-12.4h1.1l0.2,1.2h0.1
		c0.3-0.5,0.7-0.8,1.2-1c0.4-0.2,1-0.3,1.5-0.3c1.1,0,2,0.4,2.6,1.2s0.9,1.9,0.9,3.3s-0.3,2.5-0.9,3.3
		C7.3,145.2,6.5,145.6,5.4,145.6z M5.2,137.8c-0.9,0-1.5,0.2-1.9,0.7s-0.6,1.3-0.6,2.3v0.3c0,1.2,0.2,2.1,0.6,2.6s1,0.8,1.9,0.8
		c0.7,0,1.3-0.3,1.7-0.9c0.4-0.6,0.6-1.4,0.6-2.5s-0.2-1.9-0.6-2.5C6.5,138.1,5.9,137.8,5.2,137.8z"/>
	<path class="st7" d="M15.1,136.7c0.4,0,0.7,0,1,0.1l-0.2,1.2c-0.4-0.1-0.7-0.1-0.9-0.1c-0.7,0-1.3,0.3-1.8,0.8s-0.7,1.3-0.7,2.1
		v4.6h-1.3v-8.6h1.1l0.1,1.6h0.1c0.3-0.6,0.7-1,1.1-1.3C14.1,136.9,14.5,136.7,15.1,136.7z"/>
	<path class="st7" d="M25.1,141.2c0,1.4-0.4,2.5-1.1,3.3s-1.7,1.2-2.9,1.2c-0.8,0-1.4-0.2-2-0.5s-1.1-0.9-1.4-1.5
		c-0.3-0.7-0.5-1.5-0.5-2.4c0-1.4,0.3-2.5,1-3.3s1.7-1.2,2.9-1.2c1.2,0,2.1,0.4,2.9,1.2C24.7,138.7,25.1,139.8,25.1,141.2z
		 M18.6,141.2c0,1.1,0.2,1.9,0.7,2.5s1.1,0.9,1.9,0.9s1.5-0.3,1.9-0.9s0.7-1.4,0.7-2.5s-0.2-1.9-0.7-2.5c-0.4-0.6-1.1-0.8-1.9-0.8
		s-1.5,0.3-1.9,0.8C18.8,139.2,18.6,140.1,18.6,141.2z"/>
	<path class="st7" d="M30.1,144.5c0.2,0,0.5,0,0.7-0.1c0.2,0,0.4-0.1,0.5-0.1v1c-0.1,0.1-0.3,0.1-0.6,0.2s-0.5,0.1-0.7,0.1
		c-1.7,0-2.5-0.9-2.5-2.6v-5.1h-1.2v-0.6l1.2-0.5L28,135h0.8v2h2.5v1h-2.5v5c0,0.5,0.1,0.9,0.4,1.2
		C29.4,144.4,29.7,144.5,30.1,144.5z"/>
	<path class="st7" d="M36.6,145.6c-1.3,0-2.3-0.4-3-1.2c-0.7-0.8-1.1-1.8-1.1-3.2c0-1.4,0.3-2.5,1-3.3s1.6-1.2,2.7-1.2
		s1.9,0.4,2.5,1.1s0.9,1.6,0.9,2.8v0.8h-5.9c0,1,0.3,1.8,0.8,2.3s1.2,0.8,2,0.8c0.9,0,1.8-0.2,2.7-0.6v1.2c-0.5,0.2-0.9,0.3-1.3,0.4
		C37.7,145.6,37.2,145.6,36.6,145.6z M36.3,137.8c-0.7,0-1.2,0.2-1.6,0.7c-0.4,0.4-0.6,1.1-0.7,1.9h4.5c0-0.8-0.2-1.4-0.5-1.9
		C37.5,138,37,137.8,36.3,137.8z"/>
	<path class="st7" d="M45.4,145.6c-1.2,0-2.2-0.4-2.9-1.1s-1-1.8-1-3.2c0-1.4,0.3-2.5,1-3.3s1.7-1.2,2.9-1.2c0.4,0,0.8,0,1.2,0.1
		s0.7,0.2,1,0.3l-0.4,1.1c-0.3-0.1-0.6-0.2-0.9-0.3c-0.3-0.1-0.6-0.1-0.9-0.1c-1.7,0-2.6,1.1-2.6,3.3c0,1.1,0.2,1.9,0.6,2.4
		c0.4,0.6,1.1,0.8,1.9,0.8c0.7,0,1.4-0.2,2.2-0.5v1.1C47,145.5,46.3,145.6,45.4,145.6z"/>
	<path class="st7" d="M52.4,144.5c0.2,0,0.5,0,0.7-0.1c0.2,0,0.4-0.1,0.5-0.1v1c-0.1,0.1-0.3,0.1-0.6,0.2s-0.5,0.1-0.7,0.1
		c-1.7,0-2.5-0.9-2.5-2.6v-5.1h-1.2v-0.6l1.2-0.5l0.5-1.8h0.8v2h2.5v1H51v5c0,0.5,0.1,0.9,0.4,1.2C51.6,144.4,52,144.5,52.4,144.5z"
		/>
	<path class="st7" d="M55.2,134.6c0-0.3,0.1-0.5,0.2-0.7c0.1-0.1,0.3-0.2,0.5-0.2s0.4,0.1,0.5,0.2c0.2,0.1,0.2,0.4,0.2,0.6
		s-0.1,0.5-0.2,0.7c-0.2,0.1-0.3,0.2-0.5,0.2s-0.4-0.1-0.5-0.2C55.2,135.1,55.2,134.9,55.2,134.6z M56.6,145.5h-1.3v-8.6h1.3V145.5z
		"/>
	<path class="st7" d="M66.7,141.2c0,1.4-0.4,2.5-1.1,3.3s-1.7,1.2-2.9,1.2c-0.8,0-1.4-0.2-2-0.5s-1.1-0.9-1.4-1.5
		c-0.3-0.7-0.5-1.5-0.5-2.4c0-1.4,0.3-2.5,1-3.3s1.7-1.2,2.9-1.2s2.1,0.4,2.9,1.2C66.4,138.7,66.7,139.8,66.7,141.2z M60.2,141.2
		c0,1.1,0.2,1.9,0.7,2.5s1.1,0.9,1.9,0.9c0.8,0,1.5-0.3,1.9-0.9s0.7-1.4,0.7-2.5s-0.2-1.9-0.7-2.5c-0.4-0.6-1.1-0.8-1.9-0.8
		c-0.8,0-1.5,0.3-1.9,0.8C60.4,139.2,60.2,140.1,60.2,141.2z"/>
	<path class="st7" d="M74.8,145.5V140c0-0.7-0.2-1.2-0.5-1.6c-0.3-0.3-0.8-0.5-1.5-0.5c-0.9,0-1.6,0.2-2,0.7s-0.6,1.3-0.6,2.4v4.5
		H69v-8.6h1.1l0.2,1.2h0.1c0.3-0.4,0.6-0.7,1.1-1c0.5-0.2,1-0.3,1.6-0.3c1,0,1.8,0.2,2.3,0.7s0.8,1.3,0.8,2.4v5.6L74.8,145.5
		L74.8,145.5z"/>
</g>
</svg>
