<?xml version="1.0" encoding="utf-8"?>
<!-- Generator: Adobe Illustrator 21.0.0, SVG Export Plug-In . SVG Version: 6.00 Build 0)  -->
<svg version="1.1" id="Layer_1" xmlns="http://www.w3.org/2000/svg" xmlns:xlink="http://www.w3.org/1999/xlink" x="0px" y="0px"
	 viewBox="0 0 657.2 338.4" style="enable-background:new 0 0 657.2 338.4;" xml:space="preserve">
<style type="text/css">
	.st0{fill:none;stroke:#383938;stroke-width:2;stroke-linecap:round;stroke-linejoin:round;stroke-miterlimit:10;}
	.st1{fill:none;stroke:#D1D2D2;stroke-width:4;stroke-linecap:round;stroke-linejoin:round;stroke-miterlimit:10;}
	.st2{fill:none;stroke:#8EBDDE;stroke-width:4;stroke-linecap:round;stroke-linejoin:round;stroke-miterlimit:10;}
	
		.st3{fill:none;stroke:#8EBDDE;stroke-width:4;stroke-linecap:round;stroke-linejoin:round;stroke-miterlimit:10;stroke-dasharray:1,6;}
	.st4{fill:none;stroke:#4E84A1;stroke-linecap:round;stroke-linejoin:round;stroke-miterlimit:10;}
	.st5{enable-background:new    ;}
	.st6{fill:#24BDC3;}
	.st7{fill:#0E1022;}
</style>
<path class="st0" d="M498.8,78.1c-14.6,21.8-29.6,63.6-29.6,63.6L242.8,137c0,0,23.5-21.4,41.5-35.2s36-24,36-24h177.8"/>
<path class="st1" d="M511.9,65.4c-3.7,0.9-8,5.2-12.3,11.4"/>
<path class="st1" d="M384,63.3c0,0-52.6,2.9-78.1,19.8s-69.4,52.6-69.4,52.6s-63.2,15.4-75.2,20.6c-12,5.2-17.7,8.3-17.7,8.3
	s-21.4,8.3-27.1,11.5c-5.7,3.1-8.9,13.5-8.9,13.5l10.4,13l3.1-4.2l132.8,4.2l6.3,5.2L314,201c0,0,20.7-18.8,54.1-26
	c33.3-7.3,92.2-19.8,92.2-19.8"/>
<path class="st1" d="M492.9,134.5l7.3-3.3c0,0,0.5-4.9,3.6-8.5c3.1-3.5,25.5-5.6,35.9-4s14.6,7.3,14.6,11.5
	c0,4.2,0.8,10.7-12.2,12.5s-33.6,0-33.6,0l-3.3,4"/>
<path class="st1" d="M115.2,199.1l-16.6,20.6c0,0-3.8-9.4,0-17.7c3.8-8.3,9-12.3,9-12.3"/>
<path class="st1" d="M276.5,205.8l17,25.3c0,0,65.6-5.9,82.3-12.7c16.7-6.8,22.9-13.7,23.6-16.5s0-12.3,0-12.3l-85.3,11.5"/>
<path class="st1" d="M553.6,136.5l13.4-3l-19.3-57.1c0,0-23.3-5-36.5,15.8c-13.2,20.8-23.6,58.3-23.6,58.3"/>
<line class="st1" x1="487.6" y1="151.3" x2="522.3" y2="143.5"/>
<path class="st1" d="M96.9,210.4l-10.1,15.7v42.7l5.1,5.2v25c0,0,18.4,22.9,163.2,21.9s144.6-7.8,144.6-7.8s2.3-57.3,26.3-85.4
	c24-28.1,45.3-25,59.7-1.6"/>
<path class="st1" d="M122.7,204.7l-11.5,14l8.3,31.4c0,0,110.3,8.9,110.6,7.3c0.3-1.6,37.9-29.2,37.9-29.2l-14.6-20.3L122.7,204.7z"
	/>
<polygon class="st1" points="136.8,260.5 192,264.2 192,295.4 136.8,290.7 "/>
<polyline class="st1" points="136.8,278.1 100.3,275.1 96.9,293.8 127.4,302.7 131.1,306.8 216.5,312.6 219.1,310 286.2,312.6 
	259.2,288.1 191.5,282.5 "/>
<path class="st2" d="M484,51.6c0,0-57.6-3.6-95.6-3.6s-79.7,3.6-79.7,3.6c-0.3,0-0.6,0.1-0.9,0.3c0,0-12.1,5.6-34,22.9
	s-42.9,33.9-42.9,33.9c-1.3,0.9-0.6,2.9,0.9,2.9l224.8,2.5c0.7,0,1.2-0.4,1.5-1l27.4-59.3C485.9,52.7,485.1,51.6,484,51.6z"/>
<line class="st3" x1="307.8" y1="51.9" x2="320.3" y2="77.9"/>
<line class="st3" x1="230.2" y1="110.7" x2="242.7" y2="137"/>
<line class="st3" x1="456.6" y1="114.1" x2="469.1" y2="141.7"/>
<polyline class="st4" points="304.7,69.6 232,77.7 130.9,77.7 "/>
<polyline class="st4" points="304.7,69.6 232.8,163.9 90.8,163.9 "/>
<polyline class="st4" points="441.6,82.8 481.9,207.5 547.1,207.5 "/>
<line class="st3" x1="485.6" y1="51.9" x2="498.1" y2="78.9"/>
<g>
	<g class="st5">
		<path class="st6" d="M9.9,0c2.7,0,4.8,0.7,6.5,2c1.7,1.3,2.3,3,2.3,5.2c0,1.4-0.4,2.9-1.3,4c-0.9,1.2-2.3,2.3-4.3,3.3
			c2.5,1.2,4.2,2.3,5.2,3.6c1,1.3,1.6,2.7,1.6,4.4c0,2.5-0.9,4.4-2.6,5.9c-1.7,1.4-4,2.2-7,2.2c-3.1,0-5.6-0.7-7.3-2.1
			c-1.7-1.4-2.6-3.4-2.6-5.9c0-3.4,2.1-6.1,6.3-7.9c-1.8-1-3.3-2.2-4-3.4c-0.8-1.2-1.2-2.6-1.2-4.2C1.4,5,2.2,3.3,3.8,2
			C5.1,0.7,7.3,0,9.9,0z M3.5,22.7c0,1.6,0.5,2.9,1.7,3.8c1.2,0.9,2.7,1.3,4.8,1.3s3.6-0.5,4.7-1.4c1.2-0.9,1.7-2.2,1.7-3.9
			c0-1.3-0.5-2.5-1.6-3.5c-1-1-2.9-2-5.5-3c-2.1,0.9-3.5,1.8-4.4,2.9C3.9,19.9,3.5,21.2,3.5,22.7z M9.9,2.7c-1.7,0-3,0.4-4,1.2
			C5,4.7,4.4,5.9,4.4,7.2s0.4,2.3,1.2,3.3c0.8,0.9,2.3,1.8,4.4,2.7c2-0.8,3.3-1.7,4.2-2.6c0.8-0.9,1.2-2.1,1.2-3.3
			c0-1.4-0.5-2.5-1.4-3.3C13,3.3,11.6,2.7,9.9,2.7z"/>
		<path class="st6" d="M33.7,0c2.7,0,4.8,0.7,6.5,2s2.3,3,2.3,5.2c0,1.4-0.4,2.9-1.3,4c-0.9,1.2-2.3,2.3-4.3,3.3
			c2.5,1.2,4.2,2.3,5.2,3.6c1,1.3,1.6,2.7,1.6,4.4c0,2.5-0.9,4.4-2.6,5.9c-1.7,1.4-4,2.2-7,2.2c-3.1,0-5.6-0.7-7.3-2.1
			c-1.7-1.4-2.6-3.4-2.6-5.9c0-3.4,2.1-6.1,6.3-7.9c-1.8-1-3.3-2.2-4-3.4c-0.8-1.2-1.2-2.6-1.2-4.2c0-2.2,0.8-3.9,2.3-5.2
			C28.9,0.7,31.1,0,33.7,0z M27.4,22.7c0,1.6,0.5,2.9,1.7,3.8c1.2,0.9,2.7,1.3,4.8,1.3s3.6-0.5,4.7-1.4c1.2-0.9,1.7-2.2,1.7-3.9
			c0-1.3-0.5-2.5-1.6-3.5c-1-1-2.9-2-5.5-3c-2.1,0.9-3.5,1.8-4.4,2.9C27.8,19.9,27.4,21.2,27.4,22.7z M33.7,2.7c-1.7,0-3,0.4-4,1.2
			c-0.9,0.8-1.4,2-1.4,3.3s0.4,2.3,1.2,3.3c0.8,0.9,2.3,1.8,4.4,2.7c2-0.8,3.3-1.7,4.2-2.6c0.8-0.9,1.2-2.1,1.2-3.3
			c0-1.4-0.5-2.5-1.4-3.3C36.9,3.3,35.4,2.7,33.7,2.7z"/>
	</g>
	<g class="st5">
		<path class="st6" d="M58.2,12c0,2.7-0.4,4.7-1.3,6.1c-0.9,1.4-2.2,2.1-4,2.1c-1.7,0-3-0.7-3.9-2.1c-0.9-1.4-1.4-3.4-1.4-6.1
			c0-2.7,0.4-4.7,1.3-6.1c0.9-1.3,2.2-2.1,3.9-2.1s3,0.7,3.9,2.1S58.2,9.4,58.2,12z M50,12c0,2,0.3,3.5,0.7,4.6
			c0.4,1,1.2,1.6,2.1,1.6c2,0,2.9-2,2.9-6s-0.9-6-2.9-6c-1,0-1.7,0.5-2.1,1.4C50.3,8.5,50,9.9,50,12z M69.3,4.2L54.9,30.2h-2.6
			L66.7,4.2L69.3,4.2L69.3,4.2z M73.9,22.4c0,2.7-0.4,4.7-1.3,6.1c-0.9,1.4-2.2,2.1-4,2.1c-1.7,0-3-0.7-3.9-2.1
			c-0.9-1.4-1.3-3.4-1.3-6.1s0.4-4.7,1.3-6.1c0.9-1.3,2.2-2.1,3.9-2.1s3,0.7,3.9,2.1C73.4,17.7,73.9,19.8,73.9,22.4z M65.7,22.4
			c0,2.1,0.3,3.5,0.7,4.6c0.4,1,1.2,1.6,2.2,1.6s1.7-0.5,2.2-1.4c0.5-1,0.7-2.5,0.7-4.6S71.1,19,70.7,18c-0.5-1-1.2-1.4-2.2-1.4
			s-1.7,0.5-2.2,1.4C65.9,18.9,65.7,20.3,65.7,22.4z"/>
	</g>
	<g class="st5">
		<path class="st7" d="M2.2,53.7L-2,42.5h1.8l2.3,6.6c0.5,1.6,0.9,2.6,0.9,3h0.1c0.1-0.4,0.3-1,0.7-2.2s1.3-3.6,2.7-7.4h1.8
			L4.3,53.7L2.2,53.7L2.2,53.7z"/>
		<path class="st7" d="M10.2,39.5c0-0.4,0.1-0.7,0.3-0.9c0.1-0.1,0.4-0.3,0.7-0.3s0.5,0.1,0.7,0.3c0.3,0.1,0.3,0.5,0.3,0.8
			s-0.1,0.7-0.3,0.9c-0.3,0.1-0.4,0.3-0.7,0.3s-0.5-0.1-0.7-0.3S10.2,39.9,10.2,39.5z M12,53.7h-1.7V42.5H12V53.7z"/>
		<path class="st7" d="M22.8,50.7c0,1-0.4,1.8-1.2,2.3s-1.8,0.8-3.3,0.8s-2.6-0.3-3.5-0.7v-1.6c0.5,0.3,1.2,0.5,1.7,0.7
			c0.7,0.1,1.2,0.3,1.8,0.3c0.9,0,1.6-0.1,2.1-0.4c0.5-0.3,0.7-0.7,0.7-1.3c0-0.4-0.1-0.8-0.5-1.2c-0.4-0.4-1.2-0.7-2.2-1
			c-1-0.4-1.8-0.8-2.2-1c-0.4-0.3-0.8-0.7-1-1c-0.3-0.4-0.3-0.8-0.3-1.3c0-0.9,0.4-1.6,1.2-2.2c0.8-0.5,1.7-0.8,3-0.8
			c1.2,0,2.3,0.3,3.5,0.8l-0.7,1.4c-1.2-0.5-2.1-0.7-3-0.7c-0.8,0-1.4,0.1-1.8,0.4c-0.4,0.3-0.7,0.7-0.7,1c0,0.3,0.1,0.5,0.3,0.8
			s0.4,0.4,0.8,0.7c0.4,0.1,1,0.5,2,0.8c1.3,0.5,2.2,0.9,2.7,1.4C22.5,49.2,22.8,49.9,22.8,50.7z"/>
		<path class="st7" d="M25.4,39.5c0-0.4,0.1-0.7,0.3-0.9c0.1-0.1,0.4-0.3,0.7-0.3c0.3,0,0.5,0.1,0.7,0.3c0.3,0.1,0.3,0.5,0.3,0.8
			S27.1,40,27,40.3c-0.3,0.1-0.4,0.3-0.7,0.3c-0.3,0-0.5-0.1-0.7-0.3C25.4,40.1,25.4,39.9,25.4,39.5z M27.2,53.7h-1.7V42.5h1.7V53.7
			z"/>
		<path class="st7" d="M36,42.3c1.4,0,2.6,0.5,3.4,1.6c0.8,1,1.2,2.5,1.2,4.3s-0.4,3.3-1.2,4.3c-0.8,1-2,1.6-3.4,1.6
			c-0.8,0-1.4-0.1-2-0.4c-0.5-0.3-1-0.7-1.6-1.2h-0.1l-0.4,1.4h-1.2V38h1.7V42c0,0.9,0,1.7-0.1,2.3h0.1C33.2,42.9,34.4,42.3,36,42.3
			z M35.7,43.8c-1.2,0-2,0.4-2.5,1c-0.5,0.7-0.8,1.8-0.8,3.4c0,1.6,0.3,2.7,0.8,3.4s1.3,1,2.5,1c1,0,1.8-0.4,2.3-1.2
			s0.8-1.8,0.8-3.3c0-1.4-0.3-2.5-0.8-3.3C37.5,44.2,36.7,43.8,35.7,43.8z"/>
		<path class="st7" d="M45.2,53.7h-1.7V37.8h1.7V53.7z"/>
		<path class="st7" d="M53.5,53.9c-1.7,0-3-0.5-3.9-1.6c-0.9-1-1.4-2.3-1.4-4.2c0-1.8,0.4-3.3,1.3-4.3c0.9-1,2.1-1.6,3.5-1.6
			c1.4,0,2.5,0.5,3.3,1.4s1.2,2.1,1.2,3.6v1h-7.7c0,1.3,0.4,2.3,1,3s1.6,1,2.6,1c1.2,0,2.3-0.3,3.5-0.8v1.6
			c-0.7,0.3-1.2,0.4-1.7,0.5C55,53.8,54.3,53.9,53.5,53.9z M53,43.8c-0.9,0-1.6,0.3-2.1,0.9c-0.5,0.5-0.8,1.4-0.9,2.5h5.9
			c0-1-0.3-1.8-0.7-2.5C54.6,44,53.9,43.8,53,43.8z"/>
		<path class="st7" d="M67.6,53.7h-1.7V37.8h1.7V53.7z"/>
		<path class="st7" d="M71,39.5c0-0.4,0.1-0.7,0.3-0.9c0.1-0.1,0.4-0.3,0.7-0.3c0.3,0,0.5,0.1,0.7,0.3c0.3,0.1,0.3,0.5,0.3,0.8
			s-0.1,0.7-0.3,0.9c-0.3,0.1-0.4,0.3-0.7,0.3c-0.3,0-0.5-0.1-0.7-0.3C71.1,40.1,71,39.9,71,39.5z M72.8,53.7h-1.7V42.5h1.7V53.7z"
			/>
		<path class="st7" d="M85.6,42.5v1l-2.1,0.3c0.1,0.3,0.4,0.5,0.5,0.9c0.1,0.4,0.3,0.8,0.3,1.3c0,1-0.4,2-1.2,2.6
			c-0.8,0.7-1.8,1-3.1,1c-0.4,0-0.7,0-0.9-0.1c-0.8,0.4-1,0.9-1,1.4c0,0.3,0.1,0.5,0.4,0.7c0.3,0.1,0.7,0.3,1.3,0.3h2
			c1.2,0,2.1,0.3,2.7,0.8s0.9,1.3,0.9,2.2c0,1.2-0.5,2.2-1.4,2.9c-1,0.7-2.5,0.9-4.3,0.9c-1.4,0-2.6-0.3-3.4-0.8
			c-0.8-0.5-1.2-1.3-1.2-2.3c0-0.7,0.3-1.3,0.7-1.8c0.4-0.5,1-0.8,1.8-1c-0.3-0.1-0.5-0.4-0.8-0.7c-0.3-0.3-0.3-0.7-0.3-0.9
			c0-0.4,0.1-0.8,0.3-1c0.3-0.3,0.5-0.7,1-0.9c-0.5-0.3-1-0.7-1.4-1.2c-0.4-0.5-0.5-1.2-0.5-2c0-1.2,0.4-2.2,1-2.9
			c0.7-0.7,1.8-1,3.1-1c0.5,0,1.2,0.1,1.6,0.3h4V42.5z M76.7,55.5c0,0.7,0.3,1,0.8,1.4s1.3,0.5,2.2,0.5c1.4,0,2.5-0.3,3.1-0.7
			s1-1,1-1.7s-0.1-1-0.5-1.3c-0.4-0.3-1-0.4-2.1-0.4h-2.1c-0.8,0-1.3,0.1-1.8,0.5C76.9,54.3,76.7,54.9,76.7,55.5z M77.7,46.1
			c0,0.8,0.3,1.4,0.7,1.8c0.4,0.4,1,0.7,1.8,0.7c1.7,0,2.5-0.8,2.5-2.3c0-1.7-0.8-2.5-2.5-2.5c-0.8,0-1.4,0.3-1.8,0.7
			C77.9,44.8,77.7,45.2,77.7,46.1z"/>
		<path class="st7" d="M95.5,53.7v-7.2c0-0.9-0.3-1.6-0.7-2.1c-0.4-0.4-1-0.7-2-0.7c-1.2,0-2.1,0.3-2.6,0.9s-0.8,1.7-0.8,3.1v5.9
			h-1.6V37.8h1.7v4.8c0,0.5,0,1-0.1,1.4h0.1c0.4-0.5,0.8-0.9,1.4-1.3c0.7-0.3,1.3-0.5,2.1-0.5c1.3,0,2.3,0.3,3.1,0.9s1,1.7,1,3.1
			v7.3h-1.8V53.7z"/>
		<path class="st7" d="M104.2,52.5c0.3,0,0.7,0,0.9-0.1c0.3,0,0.5-0.1,0.7-0.1v1.3c-0.1,0.1-0.4,0.1-0.8,0.3s-0.7,0.1-0.9,0.1
			c-2.2,0-3.3-1.2-3.3-3.4v-6.6h-1.6v-0.8l1.6-0.7l0.7-2.3h1v2.6h3.3V44h-3.3v6.5c0,0.7,0.1,1.2,0.5,1.6
			C103.3,52.4,103.7,52.5,104.2,52.5z"/>
	</g>
	<g class="st5">
		<path class="st7" d="M3.4,76c0.3,0,0.7,0,0.9-0.1c0.3,0,0.5-0.1,0.7-0.1V77c-0.1,0.1-0.4,0.1-0.8,0.3c-0.4,0.1-0.7,0.1-0.9,0.1
			C1,77.4,0,76.2,0,74v-6.6h-1.6v-0.8L0,65.9l0.7-2.3h1v2.6H5v1.3H1.7V74c0,0.7,0.1,1.2,0.5,1.6C2.5,75.8,2.9,76,3.4,76z"/>
		<path class="st7" d="M12.2,65.8c0.5,0,0.9,0,1.3,0.1l-0.3,1.6c-0.5-0.1-0.9-0.1-1.2-0.1c-0.9,0-1.7,0.4-2.3,1s-0.9,1.7-0.9,2.7v6
			H7.2V65.9h1.4L8.7,68h0.1c0.4-0.8,0.9-1.3,1.4-1.7C10.9,65.9,11.6,65.8,12.2,65.8z"/>
		<path class="st7" d="M22.5,77.1l-0.4-1.6H22c-0.5,0.7-1.2,1.2-1.7,1.4c-0.5,0.3-1.3,0.4-2.1,0.4c-1,0-2-0.3-2.6-0.9
			C15,76,14.7,75,14.7,74c0-2.2,1.8-3.4,5.3-3.5h2v-0.7c0-0.9-0.1-1.6-0.5-2c-0.4-0.4-1-0.7-1.8-0.7c-0.9,0-2,0.3-3.1,0.9L16,66.8
			c0.5-0.3,1.2-0.5,1.8-0.7c0.7-0.1,1.3-0.3,2-0.3c1.3,0,2.3,0.3,3,0.9c0.7,0.7,0.9,1.6,0.9,2.9v7.6h-1.2V77.1z M18.8,76
			c1,0,1.8-0.3,2.5-0.9c0.7-0.7,0.9-1.4,0.9-2.5v-1l-1.7,0.1c-1.3,0-2.3,0.3-2.9,0.7c-0.7,0.4-0.9,0.9-0.9,1.7c0,0.7,0.1,1,0.5,1.4
			C17.6,75.8,18.1,76,18.8,76z"/>
		<path class="st7" d="M34.9,77.1V70c0-0.9-0.3-1.6-0.7-2.1c-0.4-0.4-1-0.7-2-0.7c-1.2,0-2.1,0.3-2.6,0.9c-0.5,0.7-0.8,1.7-0.8,3.1
			v5.9h-1.7V65.9h1.4l0.3,1.6h0.1c0.4-0.5,0.8-0.9,1.4-1.3c0.7-0.3,1.3-0.4,2.1-0.4c1.3,0,2.3,0.3,3,0.9c0.7,0.7,1,1.7,1,3.1v7.3
			L34.9,77.1L34.9,77.1z"/>
		<path class="st7" d="M47.3,74.1c0,1-0.4,1.8-1.2,2.3c-0.8,0.5-1.8,0.8-3.3,0.8s-2.6-0.3-3.5-0.7V75c0.5,0.3,1.2,0.5,1.7,0.7
			c0.7,0.1,1.2,0.3,1.8,0.3c0.9,0,1.6-0.1,2.1-0.4c0.5-0.3,0.7-0.7,0.7-1.3c0-0.4-0.1-0.8-0.5-1.2s-1.2-0.7-2.2-1
			c-1-0.4-1.8-0.8-2.2-1c-0.4-0.3-0.8-0.7-1-1c-0.3-0.4-0.3-0.8-0.3-1.3c0-0.9,0.4-1.6,1.2-2.2c0.8-0.5,1.7-0.8,3-0.8
			c1.2,0,2.3,0.3,3.5,0.8l-0.7,1.4c-1.2-0.5-2.1-0.7-3-0.7c-0.8,0-1.4,0.1-1.8,0.4c-0.4,0.3-0.7,0.7-0.7,1c0,0.3,0.1,0.5,0.3,0.8
			c0.1,0.3,0.4,0.4,0.8,0.7c0.4,0.1,1,0.5,2,0.8c1.3,0.5,2.2,0.9,2.7,1.4C47,72.7,47.3,73.4,47.3,74.1z"/>
		<path class="st7" d="M64.2,77.1v-7.3c0-0.9-0.1-1.6-0.5-2c-0.4-0.4-0.9-0.7-1.8-0.7c-1,0-1.8,0.3-2.3,0.9
			c-0.5,0.7-0.8,1.6-0.8,2.7v6.3h-1.7v-7.3c0-0.9-0.1-1.6-0.5-2c-0.4-0.4-0.9-0.7-1.8-0.7c-1,0-1.8,0.3-2.3,0.9
			c-0.5,0.7-0.8,1.7-0.8,3.1v5.9h-1.7V65.9h1.4l0.3,1.6h0.1c0.3-0.5,0.8-0.9,1.3-1.3c0.5-0.4,1.2-0.5,2-0.5c1.7,0,2.9,0.7,3.4,2h0.1
			c0.4-0.5,0.8-1,1.4-1.4c0.7-0.4,1.3-0.5,2.2-0.5c1.3,0,2.2,0.3,2.9,0.9c0.7,0.7,0.9,1.7,0.9,3.1V77h-1.7V77.1z"/>
		<path class="st7" d="M69.3,62.9c0-0.4,0.1-0.7,0.3-0.9c0.1-0.1,0.4-0.3,0.7-0.3c0.3,0,0.5,0.1,0.7,0.3c0.3,0.1,0.3,0.5,0.3,0.8
			c0,0.3-0.1,0.7-0.3,0.9c-0.3,0.1-0.4,0.3-0.7,0.3c-0.3,0-0.5-0.1-0.7-0.3C69.4,63.6,69.3,63.3,69.3,62.9z M71.1,77.1h-1.7V65.9
			h1.7V77.1z"/>
		<path class="st7" d="M82,74.1c0,1-0.4,1.8-1.2,2.3c-0.8,0.5-2,0.9-3.3,0.9c-1.4,0-2.6-0.3-3.5-0.7v-1.6c0.5,0.3,1.2,0.5,1.7,0.7
			c0.7,0.1,1.2,0.3,1.8,0.3c0.9,0,1.6-0.1,2.1-0.4c0.5-0.3,0.7-0.7,0.7-1.3c0-0.4-0.1-0.8-0.5-1.2c-0.4-0.4-1.2-0.7-2.2-1
			s-1.8-0.8-2.2-1s-0.8-0.7-1-1C74,69.7,74,69.3,74,68.8c0-0.9,0.4-1.6,1.2-2.2c0.8-0.5,1.7-0.8,3-0.8c1.2,0,2.3,0.3,3.5,0.8L81,68
			c-1.2-0.5-2.1-0.7-3-0.7c-0.8,0-1.4,0.1-1.8,0.4c-0.4,0.3-0.7,0.7-0.7,1c0,0.3,0.1,0.5,0.3,0.8c0.1,0.3,0.4,0.4,0.8,0.7
			c0.4,0.1,1,0.5,2,0.8c1.3,0.5,2.2,0.9,2.7,1.4C81.7,72.7,82,73.4,82,74.1z"/>
		<path class="st7" d="M91.9,74.1c0,1-0.4,1.8-1.2,2.3c-0.8,0.5-1.8,0.8-3.3,0.8c-1.4,0-2.6-0.3-3.5-0.7V75c0.5,0.3,1.2,0.5,1.7,0.7
			c0.7,0.1,1.2,0.3,1.8,0.3c0.9,0,1.6-0.1,2.1-0.4c0.5-0.3,0.7-0.7,0.7-1.3c0-0.4-0.1-0.8-0.5-1.2c-0.4-0.4-1.2-0.7-2.2-1
			c-1-0.4-1.8-0.8-2.2-1c-0.4-0.3-0.8-0.7-1-1c-0.3-0.4-0.3-0.8-0.3-1.3c0-0.9,0.4-1.6,1.2-2.2c0.8-0.5,1.7-0.8,3-0.8
			c1.2,0,2.3,0.3,3.5,0.8l-0.7,1.4c-1.2-0.5-2.1-0.7-3-0.7c-0.8,0-1.4,0.1-1.8,0.4c-0.4,0.3-0.7,0.7-0.7,1c0,0.3,0.1,0.5,0.3,0.8
			s0.4,0.4,0.8,0.7c0.4,0.1,1,0.5,2,0.8c1.3,0.5,2.2,0.9,2.7,1.4C91.6,72.7,91.9,73.4,91.9,74.1z"/>
		<path class="st7" d="M94.5,62.9c0-0.4,0.1-0.7,0.3-0.9c0.1-0.1,0.4-0.3,0.7-0.3c0.3,0,0.5,0.1,0.7,0.3c0.3,0.1,0.3,0.5,0.3,0.8
			c0,0.3-0.1,0.7-0.3,0.9c-0.3,0.1-0.4,0.3-0.7,0.3c-0.3,0-0.5-0.1-0.7-0.3C94.6,63.6,94.5,63.3,94.5,62.9z M96.3,77.1h-1.7V65.9
			h1.7V77.1z"/>
		<path class="st7" d="M109.4,71.5c0,1.8-0.5,3.3-1.4,4.3c-0.9,1-2.2,1.6-3.8,1.6c-1,0-1.8-0.3-2.6-0.7c-0.8-0.4-1.4-1.2-1.8-2
			c-0.4-0.9-0.7-2-0.7-3.1c0-1.8,0.4-3.3,1.3-4.3c0.9-1,2.2-1.6,3.8-1.6s2.7,0.5,3.8,1.6C109.1,68.4,109.4,69.8,109.4,71.5z
			 M101,71.5c0,1.4,0.3,2.5,0.9,3.3c0.7,0.8,1.4,1.2,2.5,1.2c1,0,2-0.4,2.5-1.2c0.5-0.8,0.9-1.8,0.9-3.3c0-1.4-0.3-2.5-0.9-3.3
			c-0.5-0.8-1.4-1-2.5-1c-1,0-2,0.4-2.5,1C101.2,69.1,101,70.1,101,71.5z"/>
		<path class="st7" d="M120.1,77.1V70c0-0.9-0.3-1.6-0.7-2.1c-0.4-0.4-1-0.7-2-0.7c-1.2,0-2.1,0.3-2.6,0.9c-0.5,0.7-0.8,1.7-0.8,3.1
			v5.9h-1.7V65.9h1.4l0.3,1.6h0.1c0.4-0.5,0.8-0.9,1.4-1.3c0.7-0.3,1.3-0.4,2.1-0.4c1.3,0,2.3,0.3,3,0.9s1,1.7,1,3.1v7.3L120.1,77.1
			L120.1,77.1z"/>
	</g>
</g>
<g>
	<g class="st5">
		<path class="st6" d="M560.1,176c0-5.9,1.2-10.2,3.4-13.2c2.2-2.9,5.6-4.3,10-4.3c1.6,0,2.7,0.1,3.6,0.4v2.9
			c-1-0.4-2.2-0.5-3.6-0.5c-3.1,0-5.6,1-7.3,3c-1.7,2-2.6,5.1-2.7,9.4h0.3c1.4-2.3,3.9-3.5,7-3.5c2.7,0,4.8,0.8,6.4,2.5
			c1.6,1.6,2.3,3.8,2.3,6.5c0,3.1-0.8,5.5-2.5,7.3c-1.7,1.8-3.9,2.6-6.9,2.6c-3.1,0-5.5-1.2-7.3-3.5
			C561,183.4,560.1,180.1,560.1,176z M570.1,186.3c2,0,3.4-0.7,4.4-1.8c1-1.2,1.6-3,1.6-5.2c0-2-0.5-3.5-1.4-4.7
			c-1-1.2-2.5-1.7-4.4-1.7c-1.2,0-2.3,0.3-3.4,0.8c-1,0.5-1.8,1.2-2.5,2.1s-0.9,1.8-0.9,2.7c0,1.4,0.3,2.7,0.8,3.9
			c0.5,1.2,1.3,2.2,2.3,2.9C567.7,185.9,568.8,186.3,570.1,186.3z"/>
	</g>
	<g class="st5">
		<path class="st6" d="M589.4,178.7l-6.8-9.5h3.4l5.2,7.4l5.1-7.4h3.4l-6.8,9.5l7.2,10h-3.4l-5.5-7.9l-5.5,7.9h-3.4L589.4,178.7z"/>
	</g>
	<g class="st5">
		<path class="st7" d="M566.7,209.2c0,1-0.4,1.8-1.2,2.3c-0.8,0.5-1.8,0.8-3.3,0.8s-2.6-0.3-3.5-0.7v-1.6c0.5,0.3,1.2,0.5,1.7,0.7
			c0.7,0.1,1.2,0.3,1.8,0.3c0.9,0,1.6-0.1,2.1-0.4c0.5-0.3,0.7-0.7,0.7-1.3c0-0.4-0.1-0.8-0.5-1.2s-1.2-0.7-2.2-1s-1.8-0.8-2.2-1
			c-0.4-0.3-0.8-0.7-1-1c-0.3-0.4-0.3-0.8-0.3-1.3c0-0.9,0.4-1.6,1.2-2.2c0.8-0.5,1.7-0.8,3-0.8c1.2,0,2.3,0.3,3.5,0.8l-0.7,1.4
			c-1.2-0.5-2.1-0.7-3-0.7c-0.8,0-1.4,0.1-1.8,0.4s-0.7,0.7-0.7,1c0,0.3,0.1,0.5,0.3,0.8c0.1,0.3,0.4,0.4,0.8,0.7
			c0.4,0.1,1,0.5,2,0.8c1.3,0.5,2.2,0.9,2.7,1.4C566.5,207.7,566.7,208.4,566.7,209.2z"/>
		<path class="st7" d="M573.1,211c0.3,0,0.7,0,0.9-0.1c0.3,0,0.5-0.1,0.7-0.1v1.3c-0.1,0.1-0.4,0.1-0.8,0.3
			c-0.4,0.1-0.7,0.1-0.9,0.1c-2.2,0-3.3-1.2-3.3-3.4v-6.6h-1.6v-0.8l1.6-0.7l0.7-2.3h1v2.6h3.3v1.3h-3.3v6.5c0,0.7,0.1,1.2,0.5,1.6
			C572.1,210.9,572.5,211,573.1,211z"/>
		<path class="st7" d="M586.4,206.6c0,1.8-0.5,3.3-1.4,4.3c-0.9,1-2.2,1.6-3.8,1.6c-1,0-1.8-0.3-2.6-0.7c-0.8-0.4-1.4-1.2-1.8-2
			c-0.4-0.9-0.7-2-0.7-3.1c0-1.8,0.4-3.3,1.3-4.3c0.9-1,2.2-1.6,3.8-1.6c1.6,0,2.7,0.5,3.8,1.6C586,203.4,586.4,204.9,586.4,206.6z
			 M577.9,206.6c0,1.4,0.3,2.5,0.9,3.3c0.7,0.8,1.4,1.2,2.5,1.2c1,0,2-0.4,2.5-1.2c0.5-0.8,0.9-1.8,0.9-3.3c0-1.4-0.3-2.5-0.9-3.3
			c-0.5-0.8-1.4-1-2.5-1c-1,0-2,0.4-2.5,1C578.2,204.1,577.9,205.1,577.9,206.6z"/>
		<path class="st7" d="M597.1,212.2V205c0-0.9-0.3-1.6-0.7-2.1c-0.4-0.4-1-0.7-2-0.7c-1.2,0-2.1,0.3-2.6,0.9
			c-0.5,0.7-0.8,1.7-0.8,3.1v5.9h-1.7V201h1.4l0.3,1.6h0.1c0.4-0.5,0.8-0.9,1.4-1.3c0.7-0.3,1.3-0.4,2.1-0.4c1.3,0,2.3,0.3,3,0.9
			c0.7,0.7,1,1.7,1,3.1v7.3L597.1,212.2L597.1,212.2z"/>
		<path class="st7" d="M607,212.4c-1.7,0-3-0.5-3.9-1.6c-0.9-1-1.4-2.3-1.4-4.2c0-1.8,0.4-3.3,1.3-4.3s2.1-1.6,3.5-1.6
			c1.4,0,2.5,0.5,3.3,1.4c0.8,0.9,1.2,2.1,1.2,3.6v1h-7.7c0,1.3,0.4,2.3,1,3c0.7,0.7,1.6,1,2.6,1c1.2,0,2.3-0.3,3.5-0.8v1.6
			c-0.7,0.3-1.2,0.4-1.7,0.5C608.3,212.3,607.7,212.4,607,212.4z M606.5,202.3c-0.9,0-1.6,0.3-2.1,0.9c-0.5,0.5-0.9,1.4-0.9,2.5h5.9
			c0-1-0.3-1.8-0.7-2.5C608,202.5,607.4,202.3,606.5,202.3z"/>
		<path class="st7" d="M623.8,212.4c-1.6,0-2.9-0.5-3.8-1.4c-0.9-0.9-1.3-2.3-1.3-4.2c0-1.8,0.4-3.3,1.3-4.3c0.9-1,2.2-1.6,3.8-1.6
			c0.5,0,1,0,1.6,0.1s0.9,0.3,1.3,0.4l-0.5,1.4c-0.4-0.1-0.8-0.3-1.2-0.4c-0.4-0.1-0.8-0.1-1.2-0.1c-2.2,0-3.4,1.4-3.4,4.3
			c0,1.4,0.3,2.5,0.8,3.1c0.5,0.8,1.4,1,2.5,1c0.9,0,1.8-0.3,2.9-0.7v1.4C625.9,212.2,625,212.4,623.8,212.4z"/>
		<path class="st7" d="M636.8,212.2V205c0-0.9-0.3-1.6-0.7-2.1c-0.4-0.4-1-0.7-2-0.7c-1.2,0-2.1,0.3-2.6,0.9
			c-0.5,0.7-0.8,1.7-0.8,3.1v5.9h-1.7v-15.9h1.7v4.8c0,0.5,0,1-0.1,1.4h0.1c0.4-0.5,0.8-0.9,1.4-1.3c0.7-0.3,1.3-0.5,2.1-0.5
			c1.3,0,2.3,0.3,3.1,0.9c0.8,0.7,1,1.7,1,3.1v7.3h-1.7V212.2z"/>
		<path class="st7" d="M641.9,198c0-0.4,0.1-0.7,0.3-0.9c0.1-0.1,0.4-0.3,0.7-0.3c0.3,0,0.5,0.1,0.7,0.3c0.3,0.1,0.3,0.5,0.3,0.8
			c0,0.3-0.1,0.7-0.3,0.9c-0.3,0.1-0.4,0.3-0.7,0.3c-0.3,0-0.5-0.1-0.7-0.3S641.9,198.4,641.9,198z M643.7,212.2H642V201h1.7V212.2z
			"/>
		<path class="st7" d="M652.5,212.4c-0.8,0-1.4-0.1-2-0.4c-0.5-0.3-1-0.7-1.6-1.2h-0.1c0.1,0.7,0.1,1.3,0.1,1.8v4.6h-1.7v-16.2h1.4
			l0.3,1.6h0.1c0.4-0.7,0.9-1,1.6-1.3c0.5-0.3,1.3-0.4,2-0.4c1.4,0,2.6,0.5,3.4,1.6c0.8,1,1.2,2.5,1.2,4.3c0,1.8-0.4,3.3-1.2,4.3
			C655.1,211.9,654,212.4,652.5,212.4z M652.3,202.3c-1.2,0-2,0.3-2.5,0.9c-0.5,0.7-0.8,1.7-0.8,3v0.4c0,1.6,0.3,2.7,0.8,3.4
			c0.5,0.7,1.3,1,2.5,1c0.9,0,1.7-0.4,2.2-1.2c0.5-0.8,0.8-1.8,0.8-3.3c0-1.4-0.3-2.5-0.8-3.3C654,202.7,653.3,202.3,652.3,202.3z"
			/>
	</g>
	<g class="st5">
		<path class="st7" d="M564.7,224.3c0.5,0,0.9,0,1.3,0.1l-0.3,1.6c-0.5-0.1-0.9-0.1-1.2-0.1c-0.9,0-1.7,0.4-2.3,1
			c-0.7,0.7-0.9,1.7-0.9,2.7v6h-1.7v-11.2h1.4l0.1,2.1h0.1c0.4-0.8,0.9-1.3,1.4-1.7C563.4,224.4,563.9,224.3,564.7,224.3z"/>
		<path class="st7" d="M572.7,235.9c-1.7,0-3-0.5-3.9-1.6c-0.9-1-1.4-2.3-1.4-4.2c0-1.8,0.4-3.3,1.3-4.3s2.1-1.6,3.5-1.6
			c1.4,0,2.5,0.5,3.3,1.4c0.8,0.9,1.2,2.1,1.2,3.6v1H569c0,1.3,0.4,2.3,1,3c0.7,0.7,1.6,1,2.6,1c1.2,0,2.3-0.3,3.5-0.8v1.6
			c-0.7,0.3-1.2,0.4-1.7,0.5C574.2,235.8,573.5,235.9,572.7,235.9z M572.3,225.7c-0.9,0-1.6,0.3-2.1,0.9c-0.5,0.5-0.9,1.4-0.9,2.5
			h5.9c0-1-0.3-1.8-0.7-2.5C573.9,226,573.1,225.7,572.3,225.7z"/>
		<path class="st7" d="M586.9,232.6c0,1-0.4,1.8-1.2,2.3c-0.8,0.5-1.8,0.8-3.3,0.8c-1.4,0-2.6-0.3-3.5-0.7v-1.6
			c0.5,0.3,1.2,0.5,1.7,0.7c0.7,0.1,1.2,0.3,1.8,0.3c0.9,0,1.6-0.1,2.1-0.4c0.5-0.3,0.7-0.7,0.7-1.3c0-0.4-0.1-0.8-0.5-1.2
			c-0.4-0.4-1.2-0.7-2.2-1s-1.8-0.8-2.2-1c-0.4-0.3-0.8-0.7-1-1c-0.3-0.4-0.3-0.8-0.3-1.3c0-0.9,0.4-1.6,1.2-2.2
			c0.8-0.5,1.7-0.8,3-0.8c1.2,0,2.3,0.3,3.5,0.8l-0.7,1.4c-1.2-0.5-2.1-0.7-3-0.7c-0.8,0-1.4,0.1-1.8,0.4s-0.7,0.7-0.7,1
			c0,0.3,0.1,0.5,0.3,0.8c0.1,0.3,0.4,0.4,0.8,0.7c0.4,0.1,1,0.5,2,0.8c1.3,0.5,2.2,0.9,2.7,1.4
			C586.7,231.2,586.9,231.9,586.9,232.6z"/>
		<path class="st7" d="M589.5,221.4c0-0.4,0.1-0.7,0.3-0.9c0.1-0.1,0.4-0.3,0.7-0.3c0.3,0,0.5,0.1,0.7,0.3c0.3,0.1,0.3,0.5,0.3,0.8
			c0,0.3-0.1,0.7-0.3,0.9c-0.3,0.1-0.4,0.3-0.7,0.3c-0.3,0-0.5-0.1-0.7-0.3C589.7,222.1,589.5,221.8,589.5,221.4z M591.4,235.6h-1.7
			v-11.2h1.7V235.6z"/>
		<path class="st7" d="M602.2,232.6c0,1-0.4,1.8-1.2,2.3s-1.8,0.8-3.3,0.8s-2.6-0.3-3.5-0.7v-1.6c0.5,0.3,1.2,0.5,1.7,0.7
			c0.7,0.1,1.2,0.3,1.8,0.3c0.9,0,1.6-0.1,2.1-0.4c0.5-0.3,0.7-0.7,0.7-1.3c0-0.4-0.1-0.8-0.5-1.2c-0.4-0.4-1.2-0.7-2.2-1
			c-1-0.4-1.8-0.8-2.2-1c-0.4-0.3-0.8-0.7-1-1c-0.3-0.4-0.3-0.8-0.3-1.3c0-0.9,0.4-1.6,1.2-2.2c0.8-0.5,1.7-0.8,3-0.8
			c1.2,0,2.3,0.3,3.5,0.8l-0.7,1.4c-1.2-0.5-2.1-0.7-3-0.7c-0.8,0-1.4,0.1-1.8,0.4s-0.7,0.7-0.7,1c0,0.3,0.1,0.5,0.3,0.8
			c0.1,0.3,0.4,0.4,0.8,0.7c0.4,0.1,1,0.5,2,0.8c1.3,0.5,2.2,0.9,2.7,1.4C601.9,231.2,602.2,231.9,602.2,232.6z"/>
		<path class="st7" d="M608.6,234.5c0.3,0,0.7,0,0.9-0.1c0.3,0,0.5-0.1,0.7-0.1v1.3c-0.1,0.1-0.4,0.1-0.8,0.3s-0.7,0.1-0.9,0.1
			c-2.2,0-3.3-1.2-3.3-3.4v-6.6h-1.6v-0.8l1.6-0.7l0.7-2.3h1v2.6h3.3v1.3h-3.3v6.5c0,0.7,0.1,1.2,0.5,1.6
			C607.5,234.3,607.9,234.5,608.6,234.5z"/>
		<path class="st7" d="M619.1,235.6l-0.4-1.6h-0.1c-0.5,0.7-1.2,1.2-1.7,1.4c-0.5,0.3-1.3,0.4-2.1,0.4c-1,0-2-0.3-2.6-0.9
			c-0.7-0.5-0.9-1.4-0.9-2.5c0-2.2,1.8-3.4,5.3-3.5h2v-0.7c0-0.9-0.1-1.6-0.5-2s-1-0.7-1.8-0.7c-0.9,0-2,0.3-3.1,0.9l-0.5-1.3
			c0.5-0.3,1.2-0.5,1.8-0.7c0.7-0.1,1.3-0.3,2-0.3c1.3,0,2.3,0.3,3,0.9c0.7,0.7,0.9,1.6,0.9,2.9v7.6h-1.2V235.6z M615.3,234.5
			c1,0,1.8-0.3,2.5-0.9c0.7-0.7,0.9-1.4,0.9-2.5v-1l-1.7,0.1c-1.3,0-2.3,0.3-2.9,0.7c-0.7,0.4-0.9,0.9-0.9,1.7c0,0.7,0.1,1,0.5,1.4
			C614.2,234.3,614.7,234.5,615.3,234.5z"/>
		<path class="st7" d="M631.5,235.6v-7.2c0-0.9-0.3-1.6-0.7-2.1c-0.4-0.4-1-0.7-2-0.7c-1.2,0-2.1,0.3-2.6,0.9
			c-0.5,0.7-0.8,1.7-0.8,3.1v5.9h-1.7v-11.2h1.4l0.3,1.6h0.1c0.4-0.5,0.8-0.9,1.4-1.3c0.7-0.3,1.3-0.4,2.1-0.4c1.3,0,2.3,0.3,3,0.9
			c0.7,0.7,1,1.7,1,3.1v7.3L631.5,235.6L631.5,235.6z"/>
		<path class="st7" d="M641.1,235.9c-1.6,0-2.9-0.5-3.8-1.4s-1.3-2.3-1.3-4.2c0-1.8,0.4-3.3,1.3-4.3c0.9-1,2.2-1.6,3.8-1.6
			c0.5,0,1,0,1.6,0.1s0.9,0.3,1.3,0.4l-0.5,1.4c-0.4-0.1-0.8-0.3-1.2-0.4c-0.4-0.1-0.8-0.1-1.2-0.1c-2.2,0-3.4,1.4-3.4,4.3
			c0,1.4,0.3,2.5,0.8,3.1c0.5,0.8,1.4,1,2.5,1c0.9,0,1.8-0.3,2.9-0.7v1.4C643.2,235.6,642.3,235.9,641.1,235.9z"/>
		<path class="st7" d="M651.3,235.9c-1.7,0-3-0.5-3.9-1.6c-0.9-1-1.4-2.3-1.4-4.2c0-1.8,0.4-3.3,1.3-4.3s2.1-1.6,3.5-1.6
			c1.4,0,2.5,0.5,3.3,1.4c0.8,0.9,1.2,2.1,1.2,3.6v1h-7.7c0,1.3,0.4,2.3,1,3c0.7,0.7,1.6,1,2.6,1c1.2,0,2.3-0.3,3.5-0.8v1.6
			c-0.7,0.3-1.2,0.4-1.7,0.5C652.7,235.8,652.1,235.9,651.3,235.9z M650.8,225.7c-0.9,0-1.6,0.3-2.1,0.9c-0.5,0.5-0.9,1.4-0.9,2.5
			h5.9c0-1-0.3-1.8-0.7-2.5C652.3,226,651.7,225.7,650.8,225.7z"/>
	</g>
</g>
<g>
	<g class="st5">
		<path class="st6" d="M19.7,123.5c0,11.6-4.6,17.5-13.6,17.5c-1.6,0-2.9-0.1-3.8-0.4v-2.9c1,0.4,2.3,0.5,3.6,0.5c3.3,0,5.7-1,7.4-3
			c1.7-2,2.6-5.1,2.7-9.3h-0.3c-0.8,1.2-1.7,2-3,2.6c-1.2,0.7-2.6,0.9-4.2,0.9c-2.6,0-4.7-0.8-6.3-2.3c-1.6-1.6-2.3-3.8-2.3-6.6
			c0-3.1,0.9-5.5,2.6-7.3c1.7-1.8,4-2.7,6.8-2.7c2.1,0,3.8,0.5,5.3,1.6c1.6,1,2.7,2.6,3.5,4.6C19.3,118.4,19.7,120.8,19.7,123.5z
			 M9.6,113.2c-2,0-3.4,0.7-4.6,1.8c-1,1.3-1.6,3-1.6,5.2c0,2,0.5,3.5,1.4,4.6s2.5,1.7,4.4,1.7c1.2,0,2.3-0.3,3.4-0.8
			c1-0.5,1.8-1.2,2.5-2.1s0.9-1.8,0.9-2.7c0-1.4-0.3-2.7-0.8-3.9c-0.5-1.2-1.3-2.2-2.3-2.9S10.9,113.2,9.6,113.2z"/>
		<path class="st6" d="M43.5,123.5C43.5,135.1,39,141,30,141c-1.6,0-2.9-0.1-3.8-0.4v-2.9c1,0.4,2.3,0.5,3.6,0.5c3.3,0,5.7-1,7.4-3
			c1.7-2,2.6-5.1,2.7-9.3h-0.3c-0.8,1.2-1.7,2-3,2.6c-1.2,0.7-2.6,0.9-4.2,0.9c-2.6,0-4.7-0.8-6.3-2.3c-1.6-1.6-2.3-3.8-2.3-6.6
			c0-3.1,0.9-5.5,2.6-7.3c1.7-1.8,4-2.7,6.8-2.7c2.1,0,3.8,0.5,5.3,1.6c1.6,1,2.7,2.6,3.5,4.6C43.1,118.4,43.5,120.8,43.5,123.5z
			 M33.5,113.2c-2,0-3.4,0.7-4.6,1.8c-1,1.3-1.6,3-1.6,5.2c0,2,0.5,3.5,1.4,4.6c0.9,1,2.5,1.7,4.4,1.7c1.2,0,2.3-0.3,3.4-0.8
			c1-0.5,1.8-1.2,2.5-2.1s0.9-1.8,0.9-2.7c0-1.4-0.3-2.7-0.8-3.9c-0.5-1.2-1.3-2.2-2.3-2.9S34.8,113.2,33.5,113.2z"/>
	</g>
	<g class="st5">
		<path class="st6" d="M58.2,122.2c0,2.7-0.4,4.7-1.3,6.1c-0.9,1.4-2.2,2.1-4,2.1c-1.7,0-3-0.7-3.9-2.1c-0.9-1.4-1.4-3.4-1.4-6.1
			s0.4-4.7,1.3-6.1c0.9-1.3,2.2-2.1,3.9-2.1s3,0.7,3.9,2.1C57.6,117.5,58.2,119.6,58.2,122.2z M50,122.2c0,2,0.3,3.5,0.7,4.6
			c0.4,1,1.2,1.6,2.1,1.6c2,0,2.9-2,2.9-6s-0.9-6-2.9-6c-1,0-1.7,0.5-2.1,1.4C50.3,118.7,50,120.3,50,122.2z M69.3,114.5l-14.5,26.1
			h-2.6l14.5-26.1H69.3z M73.9,132.6c0,2.7-0.4,4.7-1.3,6.1c-0.9,1.4-2.2,2.1-4,2.1c-1.7,0-3-0.7-3.9-2.1c-0.9-1.4-1.3-3.4-1.3-6.1
			c0-2.7,0.4-4.7,1.3-6.1c0.9-1.3,2.2-2.1,3.9-2.1s3,0.7,3.9,2.1C73.4,127.9,73.9,130,73.9,132.6z M65.7,132.6
			c0,2.1,0.3,3.5,0.7,4.6c0.4,1,1.2,1.6,2.2,1.6s1.7-0.5,2.2-1.4c0.5-1,0.7-2.5,0.7-4.6s-0.3-3.5-0.7-4.6c-0.5-1-1.2-1.4-2.2-1.4
			s-1.7,0.5-2.2,1.4C65.9,129.1,65.7,130.7,65.7,132.6z"/>
	</g>
	<g class="st5">
		<path class="st7" d="M11.3,149.1v9.6c0,1.7-0.5,3-1.6,4c-1,0.9-2.5,1.4-4.2,1.4s-3.1-0.5-4.2-1.4c-1-1-1.4-2.3-1.4-4v-9.6h1.7v9.8
			c0,1.3,0.4,2.2,1,2.9c0.7,0.7,1.7,1,3,1s2.2-0.4,2.9-1c0.7-0.7,1-1.6,1-2.9v-9.8H11.3z"/>
		<path class="st7" d="M23.7,149.1h1.8l-5.3,14.9h-1.7l-5.3-14.9H15l3.4,9.6c0.4,1,0.7,2.2,0.9,3.3c0.3-1,0.5-2.2,0.9-3.3
			L23.7,149.1z"/>
		<path class="st7" d="M37,164l-1.8-4.7h-6l-1.8,4.7h-1.7l5.9-15H33l5.9,15H37z M34.7,157.7l-1.7-4.6c-0.3-0.5-0.4-1.3-0.7-2.1
			c-0.1,0.7-0.4,1.3-0.7,2.1l-1.7,4.6H34.7z"/>
		<path class="st7" d="M46.3,149.1l-5.6,14.9H39l5.6-14.9H46.3z"/>
		<path class="st7" d="M59.8,149.1v9.6c0,1.7-0.5,3-1.6,4c-1,0.9-2.5,1.4-4.2,1.4s-3.1-0.5-4.2-1.4c-1-1-1.4-2.3-1.4-4v-9.6h1.7v9.8
			c0,1.3,0.4,2.2,1,2.9c0.7,0.7,1.7,1,3,1c1.3,0,2.2-0.4,2.9-1c0.7-0.7,1-1.6,1-2.9v-9.8H59.8z"/>
		<path class="st7" d="M72.2,149.1H74l-5.3,14.9H67l-5.3-14.9h1.8l3.4,9.6c0.4,1,0.7,2.2,0.9,3.3c0.3-1,0.5-2.2,0.9-3.3L72.2,149.1z
			"/>
		<path class="st7" d="M76.1,149.1h4.2c2,0,3.4,0.3,4.3,0.9c0.9,0.7,1.3,1.6,1.3,2.7c0,0.9-0.3,1.6-0.8,2.2
			c-0.5,0.5-1.2,0.9-2.2,1.2v0.1c2.2,0.4,3.4,1.6,3.4,3.5c0,1.3-0.4,2.3-1.3,3.1c-0.9,0.8-2.2,1.2-3.8,1.2H76v-15H76.1z M77.8,155.4
			h2.9c1.2,0,2.1-0.1,2.6-0.5c0.5-0.4,0.8-1,0.8-2c0-0.8-0.3-1.4-0.9-1.8s-1.6-0.5-2.9-0.5h-2.6v4.8H77.8z M77.8,156.9v5.6h3.1
			c1.2,0,2.1-0.3,2.7-0.7c0.7-0.5,0.9-1.2,0.9-2.2c0-0.9-0.3-1.6-0.9-2.1c-0.7-0.5-1.6-0.7-2.9-0.7L77.8,156.9L77.8,156.9z"/>
	</g>
	<g class="st5">
		<path class="st7" d="M5.1,187.6c-0.8,0-1.4-0.1-2-0.4s-1-0.7-1.6-1.2H1.4c0.1,0.7,0.1,1.3,0.1,1.8v4.6h-1.7v-16.2h1.4l0.3,1.6h0.1
			c0.4-0.7,0.9-1,1.6-1.3c0.5-0.3,1.3-0.4,2-0.4c1.4,0,2.6,0.5,3.4,1.6s1.2,2.5,1.2,4.3c0,1.8-0.4,3.3-1.2,4.3
			C7.6,187.1,6.5,187.6,5.1,187.6z M4.8,177.5c-1.2,0-2,0.3-2.5,0.9c-0.5,0.7-0.8,1.7-0.8,3v0.4c0,1.6,0.3,2.7,0.8,3.4
			c0.5,0.7,1.3,1,2.5,1c0.9,0,1.7-0.4,2.2-1.2c0.5-0.8,0.8-1.8,0.8-3.3c0-1.4-0.3-2.5-0.8-3.3C6.5,177.8,5.7,177.5,4.8,177.5z"/>
		<path class="st7" d="M17.7,176c0.5,0,0.9,0,1.3,0.1l-0.3,1.6c-0.5-0.1-0.9-0.1-1.2-0.1c-0.9,0-1.7,0.4-2.3,1
			c-0.7,0.7-0.9,1.7-0.9,2.7v6h-1.7v-11.2h1.4l0.1,2.1h0.1c0.4-0.8,0.9-1.3,1.4-1.7C16.4,176.3,16.9,176,17.7,176z"/>
		<path class="st7" d="M30.7,181.9c0,1.8-0.5,3.3-1.4,4.3c-0.9,1-2.2,1.6-3.8,1.6c-1,0-1.8-0.3-2.6-0.7s-1.4-1.2-1.8-2
			c-0.4-0.9-0.7-2-0.7-3.1c0-1.8,0.4-3.3,1.3-4.3c0.9-1,2.2-1.6,3.8-1.6c1.6,0,2.7,0.5,3.8,1.6C30.2,178.6,30.7,180.1,30.7,181.9z
			 M22.3,181.9c0,1.4,0.3,2.5,0.9,3.3c0.7,0.8,1.4,1.2,2.5,1.2s2-0.4,2.5-1.2c0.5-0.8,0.9-1.8,0.9-3.3c0-1.4-0.3-2.5-0.9-3.3
			c-0.5-0.8-1.4-1-2.5-1s-2,0.4-2.5,1C22.5,179.3,22.3,180.5,22.3,181.9z"/>
		<path class="st7" d="M37.3,186.2c0.3,0,0.7,0,0.9-0.1c0.3,0,0.5-0.1,0.7-0.1v1.3c-0.1,0.1-0.4,0.1-0.8,0.3s-0.7,0.1-0.9,0.1
			c-2.2,0-3.3-1.2-3.3-3.4v-6.6h-1.6v-0.8l1.6-0.7l0.7-2.3h1v2.6h3.3v1.3h-3.3v6.5c0,0.7,0.1,1.2,0.5,1.6
			C36.4,186.1,36.7,186.2,37.3,186.2z"/>
		<path class="st7" d="M45.7,187.6c-1.7,0-3-0.5-3.9-1.6c-0.9-1-1.4-2.3-1.4-4.2c0-1.8,0.4-3.3,1.3-4.3c0.9-1,2.1-1.6,3.5-1.6
			c1.4,0,2.5,0.5,3.3,1.4c0.8,0.9,1.2,2.1,1.2,3.6v1H42c0,1.3,0.4,2.3,1,3c0.7,0.7,1.6,1,2.6,1c1.2,0,2.3-0.3,3.5-0.8v1.6
			c-0.7,0.3-1.2,0.4-1.7,0.5C47.2,187.6,46.5,187.6,45.7,187.6z M45.3,177.5c-0.9,0-1.6,0.3-2.1,0.9c-0.5,0.5-0.8,1.4-0.9,2.5h5.9
			c0-1-0.3-1.8-0.7-2.5C46.9,177.7,46.3,177.5,45.3,177.5z"/>
		<path class="st7" d="M57.2,187.6c-1.6,0-2.9-0.5-3.8-1.4s-1.3-2.3-1.3-4.2c0-1.8,0.4-3.3,1.3-4.3c0.9-1,2.2-1.6,3.8-1.6
			c0.5,0,1,0,1.6,0.1c0.5,0.1,0.9,0.3,1.3,0.4l-0.5,1.4c-0.4-0.1-0.8-0.3-1.2-0.4c-0.4-0.1-0.8-0.1-1.2-0.1c-2.2,0-3.4,1.4-3.4,4.3
			c0,1.4,0.3,2.5,0.8,3.1c0.5,0.8,1.4,1,2.5,1c0.9,0,1.8-0.3,2.9-0.7v1.4C59.3,187.5,58.4,187.6,57.2,187.6z"/>
		<path class="st7" d="M66.3,186.2c0.3,0,0.7,0,0.9-0.1c0.3,0,0.5-0.1,0.7-0.1v1.3c-0.1,0.1-0.4,0.1-0.8,0.3
			c-0.4,0.1-0.7,0.1-0.9,0.1c-2.2,0-3.3-1.2-3.3-3.4v-6.6h-1.6v-0.8l1.6-0.7l0.7-2.3h1v2.6h3.3v1.3h-3.4v6.5c0,0.7,0.1,1.2,0.5,1.6
			C65.3,186.1,65.8,186.2,66.3,186.2z"/>
		<path class="st7" d="M70,173.3c0-0.4,0.1-0.7,0.3-0.9c0.1-0.1,0.4-0.3,0.7-0.3c0.3,0,0.5,0.1,0.7,0.3c0.3,0.1,0.3,0.5,0.3,0.8
			c0,0.3-0.1,0.7-0.3,0.9c-0.3,0.1-0.4,0.3-0.7,0.3c-0.3,0-0.5-0.1-0.7-0.3C70,173.9,70,173.7,70,173.3z M71.8,187.5h-1.7v-11.2h1.7
			V187.5z"/>
		<path class="st7" d="M84.9,181.9c0,1.8-0.5,3.3-1.4,4.3s-2.2,1.6-3.8,1.6c-1,0-1.8-0.3-2.6-0.7c-0.8-0.4-1.4-1.2-1.8-2
			c-0.4-0.9-0.7-2-0.7-3.1c0-1.8,0.4-3.3,1.3-4.3c0.9-1,2.2-1.6,3.8-1.6c1.6,0,2.7,0.5,3.8,1.6C84.6,178.6,84.9,180.1,84.9,181.9z
			 M76.5,181.9c0,1.4,0.3,2.5,0.9,3.3c0.7,0.8,1.4,1.2,2.5,1.2c1,0,2-0.4,2.5-1.2c0.5-0.8,0.9-1.8,0.9-3.3c0-1.4-0.3-2.5-0.9-3.3
			c-0.5-0.8-1.4-1-2.5-1c-1,0-2,0.4-2.5,1C76.7,179.3,76.5,180.5,76.5,181.9z"/>
		<path class="st7" d="M95.5,187.5v-7.2c0-0.9-0.3-1.6-0.7-2.1c-0.4-0.4-1-0.7-2-0.7c-1.2,0-2.1,0.3-2.6,0.9
			c-0.5,0.7-0.8,1.7-0.8,3.1v5.9h-1.6v-11.2h1.4l0.3,1.6h0.1c0.4-0.5,0.8-0.9,1.4-1.3c0.7-0.3,1.3-0.4,2.1-0.4c1.3,0,2.3,0.3,3,0.9
			c0.7,0.7,1,1.7,1,3.1v7.3L95.5,187.5L95.5,187.5z"/>
	</g>
</g>
</svg>
