<?xml version="1.0" encoding="UTF-8"?>
<svg width="12px" height="12px" viewBox="0 0 12 12" version="1.1" xmlns="http://www.w3.org/2000/svg" xmlns:xlink="http://www.w3.org/1999/xlink">
    <!-- Generator: Sketch 41.2 (35397) - http://www.bohemiancoding.com/sketch -->
    <title>Shape</title>
    <desc>Created with Sketch.</desc>
    <defs></defs>
    <g id="Page-1" stroke="none" stroke-width="1" fill="none" fill-rule="evenodd">
        <g id="svg+xml-1" fill="#DDDDDD">
            <g id="cross_mark_6_">
                <path d="M7.41,6 L11.7,1.71 C11.89,1.53 12,1.28 12,1 C12,0.45 11.55,0 11,0 C10.72,0 10.47,0.11 10.29,0.29 L6,4.59 L1.71,0.29 C1.53,0.11 1.28,0 1,0 C0.45,0 0,0.45 0,1 C0,1.28 0.11,1.53 0.29,1.71 L4.59,6 L0.3,10.29 C0.11,10.47 0,10.72 0,11 C0,11.55 0.45,12 1,12 C1.28,12 1.53,11.89 1.71,11.71 L6,7.41 L10.29,11.7 C10.47,11.89 10.72,12 11,12 C11.55,12 12,11.55 12,11 C12,10.72 11.89,10.47 11.71,10.29 L7.41,6 Z" id="Shape"></path>
            </g>
        </g>
    </g>
</svg>