<?xml version="1.0" encoding="utf-8"?>
<!-- Generator: Adobe Illustrator 19.1.0, SVG Export Plug-In . SVG Version: 6.00 Build 0)  -->
<svg version="1.1" id="Layer_1" xmlns="http://www.w3.org/2000/svg" xmlns:xlink="http://www.w3.org/1999/xlink" x="0px" y="0px"
	 viewBox="-29.3 364.2 377.3 63.5" style="enable-background:new -29.3 364.2 377.3 63.5;" xml:space="preserve">
<style type="text/css">
	.st0{fill:#FFFFFF;}
</style>
<g>
	<path class="st0" d="M7.9,414.7h-21.6l-5.2,13h-10.5l26.4-63.5l26.3,63.5H13L7.9,414.7z M4.4,406.2l-7.4-18.5l-7.4,18.5H4.4z"/>
	<path class="st0" d="M66.1,427.7H40.6h-9.4V367h9.5v52.1h25.4V427.7z"/>
	<path class="st0" d="M117.6,422.7c-1.6,1-3.2,1.9-4.9,2.6c-3.8,1.6-7.8,2.4-11.9,2.4s-8.1-0.8-11.8-2.4c-3.7-1.6-6.9-3.8-9.7-6.5
		c-2.8-2.8-5-6-6.5-9.7c-1.6-3.7-2.4-7.7-2.4-11.8c0-4.1,0.8-8.1,2.4-11.9c1.6-3.6,3.8-6.9,6.5-9.7c2.8-2.8,6-5,9.7-6.5
		c3.7-1.6,7.7-2.4,11.8-2.4s8.1,0.7,11.9,2.4c0.4,0.2,0.9,0.4,1.3,0.6v11.2c-3.7-3-8.3-4.7-13.2-4.7c-5.6,0-10.8,2.1-14.7,6.1
		c-3.9,3.9-6.1,9.2-6.1,14.7c0,5.6,2.2,10.8,6.1,14.7c3.9,3.9,9.2,6.1,14.7,6.1s10.8-2.2,14.7-6.1c0.7-0.7,1.4-1.5,2-2.3V422.7z"/>
	<path class="st0" d="M170,427.7h-9.5v-26.2h-24.2v26.2h-9.5V367h9.5v25.9h24.2V367h9.5V427.7z"/>
	<path class="st0" d="M192.2,391.7h22.2v8.6h-22.2v18.8h26.9v8.6h-27h-9.4V367h9.4h27v8.5h-26.9V391.7z"/>
	<path class="st0" d="M277.9,427.7v-32.2l-19,28.3l-19.1-28.3v32.2h-9.5v-63.5l28.5,42.5l28.5-42.5v63.5H277.9z"/>
	<path class="st0" d="M326.7,395.9v31.7h-9.5v-31.7l-21.3-29h11l15,20.8L337,367h11L326.7,395.9z"/>
</g>
</svg>
