<?xml version="1.0" encoding="utf-8"?>
<!-- Generator: Adobe Illustrator 19.1.0, SVG Export Plug-In . SVG Version: 6.00 Build 0)  -->
<svg version="1.1" id="Layer_1" xmlns="http://www.w3.org/2000/svg" xmlns:xlink="http://www.w3.org/1999/xlink" x="0px" y="0px"
	 viewBox="0 0 392.9 62.1" style="enable-background:new 0 0 392.9 62.1;" xml:space="preserve">
<style type="text/css">
	.st0{fill:#FFFFFF;}
</style>
<g>
	<path class="st0" d="M36.4,49.4H15.3l-5,12.7H0L25.8,0l25.8,62.1H41.4L36.4,49.4z M33,41L25.8,23L18.6,41H33z"/>
	<path class="st0" d="M97.3,62.1H72.4h-9.2V2.7h9.3v51h24.8V62.1z"/>
	<path class="st0" d="M151.7,57.2c-1.5,1-3.1,1.8-4.8,2.6c-3.7,1.5-7.6,2.3-11.6,2.3c-4,0-7.9-0.8-11.5-2.3
		c-3.6-1.5-6.7-3.7-9.4-6.4c-2.7-2.7-4.9-5.8-6.4-9.4c-1.5-3.6-2.3-7.5-2.3-11.5s0.8-7.9,2.3-11.6c1.5-3.5,3.7-6.7,6.4-9.4
		c2.7-2.7,5.8-4.9,9.4-6.3c3.6-1.6,7.5-2.3,11.5-2.3c4,0,7.9,0.7,11.6,2.3c0.4,0.2,0.9,0.4,1.3,0.6v11c-3.6-3-8.1-4.6-12.9-4.6
		c-5.4,0-10.6,2.1-14.4,6c-3.8,3.8-6,9-6,14.4s2.2,10.6,6,14.4c3.8,3.8,9,6,14.4,6c5.4,0,10.6-2.2,14.4-6c0.7-0.7,1.4-1.4,2-2.2
		V57.2z"/>
	<path class="st0" d="M206.9,62.1h-9.3V36.5h-23.7v25.6h-9.3V2.7h9.3v25.4h23.7V2.7h9.3V62.1z"/>
	<path class="st0" d="M232.6,26.9h21.7v8.4h-21.7v18.4h26.3v8.4h-26.4h-9.2V2.7h9.2h26.4V11h-26.3V26.9z"/>
	<path class="st0" d="M320.3,62.1V30.6l-18.6,27.7l-18.6-27.7v31.5h-9.3V0l27.9,41.6L329.7,0v62.1H320.3z"/>
	<path class="st0" d="M372.1,31v31h-9.3V31L341.9,2.7h10.8L367.4,23l14.7-20.3h10.7L372.1,31z"/>
</g>
</svg>
