<?xml version="1.0" encoding="utf-8"?>
<!-- Generator: Adobe Illustrator 17.1.0, SVG Export Plug-In . SVG Version: 6.00 Build 0)  -->
<!DOCTYPE svg PUBLIC "-//W3C//DTD SVG 1.1//EN" "http://www.w3.org/Graphics/SVG/1.1/DTD/svg11.dtd">
<svg version="1.1" id="Layer_1" xmlns="http://www.w3.org/2000/svg" xmlns:xlink="http://www.w3.org/1999/xlink" x="0px" y="0px"
	 viewBox="0 0 531 64.8" enable-background="new 0 0 531 64.8" xml:space="preserve">
<g>
	<path fill="#FFFFFF" d="M9.3,24v38.2H0V0l37.3,40.9V2.8h9.4v62.1L9.3,24z"/>
	<path fill="#FFFFFF" d="M72.3,27H94v8.4H72.3v18.4h26.3v8.4H72.2H63V2.8h9.2h26.4v8.3H72.3V27z"/>
	<path fill="#FFFFFF" d="M136.3,41.9l15.6-39.1H162l-25.4,62l-27.2-62h10.2L136.3,41.9z"/>
	<path fill="#FFFFFF" d="M183.5,27h21.7v8.4h-21.7v18.4h26.3v8.4h-26.4h-9.2V2.8h9.2h26.4v8.3h-26.3V27z"/>
	<path fill="#FFFFFF" d="M266.3,62.2h-10.5l-15-20.1h-6.8v20.1h-9.3V2.8h7.8h9.8c7.8,0,12.4,3.2,14.8,5.9c3.1,3.4,4.8,8.2,4.8,13.8
		c0,5.4-1.7,10.2-4.8,13.7c-1.4,1.6-3.7,3.4-6.9,4.6L266.3,62.2z M242.4,33.8c3.8,0,6.7-1.1,8.6-3.2c2.2-2.4,2.6-5.8,2.6-8.1
		c0-2.4-0.4-5.8-2.6-8.2c-1.8-2.1-4.7-3.1-8.6-3.1h-8.3v22.6H242.4z"/>
	<path fill="#FFFFFF" d="M286.9,27h21.7v8.4h-21.7v26.8h-9.3V2.8h9.2h26.5v8.3h-26.4V27z"/>
	<path fill="#FFFFFF" d="M369.8,62.2h-10.5l-15-20.1h-6.8v20.1h-9.3V2.8h7.8h9.8c7.8,0,12.4,3.2,14.8,5.9c3.1,3.4,4.8,8.2,4.8,13.8
		c0,5.4-1.7,10.2-4.8,13.7c-1.4,1.6-3.7,3.4-6.9,4.6L369.8,62.2z M345.8,33.8c3.8,0,6.7-1.1,8.6-3.2c2.2-2.4,2.6-5.8,2.6-8.1
		c0-2.4-0.4-5.8-2.6-8.2c-1.8-2.1-4.7-3.1-8.6-3.1h-8.3v22.6H345.8z"/>
	<path fill="#FFFFFF" d="M396,59.8c-3.6-1.5-6.7-3.7-9.4-6.4c-2.7-2.7-4.9-5.8-6.4-9.4s-2.3-7.5-2.3-11.5s0.8-7.9,2.3-11.6
		c1.5-3.5,3.7-6.6,6.4-9.4c2.7-2.7,5.8-4.8,9.4-6.3s7.5-2.3,11.5-2.3s7.9,0.8,11.6,2.3c3.5,1.5,6.6,3.6,9.4,6.3
		c2.7,2.8,4.8,5.9,6.3,9.4c1.5,3.7,2.3,7.6,2.3,11.6s-0.8,7.9-2.3,11.5c-1.5,3.6-3.6,6.7-6.3,9.4c-2.8,2.7-5.9,4.9-9.4,6.4
		c-3.7,1.5-7.6,2.3-11.6,2.3S399.6,61.4,396,59.8z M393.1,18.1c-3.8,3.8-6,9-6,14.4s2.2,10.6,6,14.4c3.8,3.8,9,6,14.4,6
		c5.4,0,10.6-2.2,14.4-6c3.8-3.8,6-9,6-14.4s-2.2-10.6-6-14.4c-3.8-3.8-9-6-14.4-6C402.1,12.1,397,14.2,393.1,18.1z"/>
	<path fill="#FFFFFF" d="M479.9,50.2c-1.7,5.8-6.9,10.3-13.4,11.6c-1.2,0.2-2.4,0.3-3.6,0.3c-2.4,0-4.8-0.4-7-1.3
		c-3.8-1.5-7-4-9.8-7.6l7.4-5.8c1.7,2.2,3.7,3.8,5.8,4.6c1.8,0.7,3.7,0.9,5.4,0.5c3-0.6,5.5-2.6,6.2-5c0.8-2.7-1-5.1-2.7-6.7
		c-2.6-2.5-7-6.7-7.3-7l-7.3-6.9c-2.2-2.2-3.8-4.6-4.6-7.1c-0.8-2.5-0.9-5.1-0.2-7.5c0.7-2.6,2.2-4.8,4.4-6.6c2-1.7,4.5-2.9,7.1-3.4
		c2.9-0.6,5.9-0.4,8.8,0.6c3,1.2,5.8,3.2,8.1,6l-7.3,5.8c-3-3.7-6.2-3.7-7.8-3.4c-2.1,0.4-3.8,1.8-4.3,3.4c-0.3,1.1-0.2,3,2.2,5.4
		l9.9,9.5c1.4,1.4,3.2,3.1,4.5,4.3c2.6,2.3,4.3,5,5.2,7.8C480.6,44.6,480.7,47.5,479.9,50.2z"/>
	<path fill="#FFFFFF" d="M531,11.1h-16.3v51h-9.4v-51H489V2.8h42V11.1z"/>
</g>
</svg>
