<?xml version="1.0" encoding="iso-8859-1"?>
<!-- Generator: Adobe Illustrator 19.1.0, SVG Export Plug-In . SVG Version: 6.00 Build 0)  -->
<svg version="1.1" id="Layer_1" xmlns="http://www.w3.org/2000/svg" xmlns:xlink="http://www.w3.org/1999/xlink" x="0px" y="0px"
	 viewBox="0 0 80.378 80.389" style="enable-background:new 0 0 80.378 80.389;" xml:space="preserve">
<g>
	<path style="fill:none;stroke:#344356;stroke-width:2;stroke-linecap:round;stroke-miterlimit:10;" d="M5.977,29.864
		c3.985,5,10.127,8.204,17.018,8.204c3.257,0,6.348-0.716,9.122-1.999"/>
	<path style="fill:none;stroke:#344356;stroke-width:2;stroke-linecap:round;stroke-miterlimit:10;" d="M43.323,8.567
		c-0.963-2.524-2.382-4.822-4.157-6.795"/>
	<path style="fill:none;stroke:#344356;stroke-width:2;stroke-linecap:round;stroke-miterlimit:10;" d="M37.725,32.32
		c4.316-3.975,7.019-9.673,7.019-16.002c0-1.539-0.16-3.041-0.464-4.49"/>
	<path style="fill:none;stroke:#344356;stroke-width:2;stroke-linecap:round;stroke-miterlimit:10;" d="M7.383,19.84
		c1.604,7.142,7.985,12.478,15.611,12.478c8.837,0,16-7.163,16-16c0-5.864-3.155-10.991-7.859-13.777"/>
	<path style="fill:none;stroke:#344356;stroke-width:2;stroke-linecap:round;stroke-miterlimit:10;" d="M50.775,30.461
		c2.165-4.245,3.386-9.051,3.386-14.143c0-2.438-0.28-4.811-0.81-7.088"/>
	<path style="fill:none;stroke:#344356;stroke-width:2;stroke-linecap:round;stroke-miterlimit:10;" d="M28.54,46.993
		c8.707-1.564,16.159-6.744,20.746-13.93"/>
	<path style="fill:none;stroke:#344356;stroke-width:2;stroke-linecap:round;stroke-miterlimit:10;" d="M18.211,47.12
		c0.398,0.061,0.799,0.115,1.202,0.161"/>
	<path style="fill:none;stroke:#344356;stroke-width:2;stroke-linecap:round;stroke-miterlimit:10;" d="M5.137,41.865
		c1.993,1.396,4.156,2.564,6.453,3.467"/>
	<path style="fill:none;stroke:#344356;stroke-width:2;stroke-linecap:round;stroke-miterlimit:10;" d="M1.217,38.613
		c0.606,0.592,1.237,1.16,1.89,1.702"/>
	<path style="fill:none;stroke:#344356;stroke-width:2;stroke-linecap:round;stroke-miterlimit:10;" d="M52.701,6.861
		c-0.392-1.232-0.858-2.43-1.393-3.59"/>
	<path style="fill:none;stroke:#344356;stroke-width:2;stroke-linecap:round;stroke-miterlimit:10;" d="M78.393,52.205"/>
	<path style="fill:none;stroke:#344356;stroke-width:2;stroke-linecap:round;stroke-miterlimit:10;" d="M32.104,79.5"/>
	<path style="fill:none;stroke:#344356;stroke-width:2;stroke-linecap:round;stroke-miterlimit:10;" d="M37.454,0.071"/>
</g>
<g>
	<path style="fill:#344356;" d="M40.189,2.318c20.953,0,38,17.047,38,38s-17.047,38-38,38s-38-17.047-38-38
		S19.236,2.318,40.189,2.318 M40.189,0.318c-22.091,0-40,17.909-40,40c0,22.091,17.909,40,40,40c22.091,0,40-17.909,40-40
		C80.189,18.226,62.28,0.318,40.189,0.318L40.189,0.318z"/>
</g>
<path style="fill:none;stroke:#344356;stroke-width:2;stroke-linecap:round;stroke-miterlimit:10;" d="M50.485,49.286L49.75,49.86
	c-1.64,1.282-1.64,3.36,0,4.642l0.628,0.491c1.64,1.282,1.64,3.36,0,4.642l-0.717,0.56c-1.64,1.282-1.64,3.36,0,4.642l0.06,0.047"/>
<path style="fill:none;stroke:#344356;stroke-width:2;stroke-linecap:round;stroke-miterlimit:10;" d="M37.091,49.286l-0.735,0.574
	c-1.64,1.282-1.64,3.36,0,4.642l0.628,0.491c1.64,1.282,1.64,3.36,0,4.642l-0.717,0.56c-1.64,1.282-1.64,3.36,0,4.642l0.06,0.047"/>
<path style="fill:none;stroke:#344356;stroke-width:2;stroke-linecap:round;stroke-miterlimit:10;" d="M43.987,45.936l-1.05,0.821
	c-2.345,1.833-2.345,4.804,0,6.636l0.898,0.702c2.345,1.833,2.345,4.804,0,6.636l-1.025,0.801c-2.345,1.833-2.345,4.804,0,6.636
	l0.086,0.067"/>
<line style="fill:none;stroke:#344356;stroke-width:2;stroke-linecap:round;stroke-miterlimit:10;" x1="18.812" y1="72.693" x2="61.411" y2="72.693"/>
</svg>
